<svg xmlns="http://www.w3.org/2000/svg" width="18" height="18"><path fill-rule="evenodd" fill-opacity=".302" fill="#FFF" d="M17.7 9.931h-1.615a7.154 7.154 0 01-6.153 6.152v1.616a.31.31 0 01-.311.311H8.378a.31.31 0 01-.31-.311v-1.616a7.154 7.154 0 01-6.153-6.152H.3a.312.312 0 01-.311-.311V8.377a.31.31 0 01.311-.31h1.615a7.155 7.155 0 016.153-6.153V.298c0-.172.139-.31.31-.311h1.243a.311.311 0 01.311.311v1.616a7.155 7.155 0 016.153 6.153H17.7a.31.31 0 01.311.31V9.62c0 .171-.139.31-.311.311zM9 3.715a5.291 5.291 0 00-5.282 5.284A5.283 5.283 0 109 3.715zm0 7.77a2.487 2.487 0 11.001-4.973A2.487 2.487 0 019 11.485z"/></svg>