<svg xmlns="http://www.w3.org/2000/svg" width="62" height="60"><path fill-rule="evenodd" fill="#AAB5C9" d="M42.31 44.158c0-.487.395-.883.883-.883h12.945a.883.883 0 010 1.767H43.193a.883.883 0 01-.883-.884zm17.428 6.463c.812 0 1.472.662 1.472 1.472v6.442c0 .811-.66 1.472-1.472 1.472H39.593a1.474 1.474 0 01-1.472-1.472v-2.348a.88.88 0 010-1.743v-2.351c0-.81.66-1.472 1.472-1.472h9.19v-1.77h-9.19c-.812 0-1.472-.66-1.472-1.472v-6.441c0-.812.66-1.472 1.472-1.472h9.19v-1.771h-9.19c-.812 0-1.472-.66-1.472-1.472v-6.442c0-.811.66-1.471 1.472-1.471h9.365a.88.88 0 01-.175-.528v-1.413a.883.883 0 011.765 0v1.413c0 .198-.066.38-.175.528h9.365c.812 0 1.472.66 1.472 1.471v6.442c0 .812-.66 1.472-1.472 1.472h-9.19v1.771h9.19c.812 0 1.472.66 1.472 1.472v6.441c0 .812-.66 1.472-1.472 1.472h-2.766a.882.882 0 010-1.766h2.472v-5.853H39.887v5.853h12.966a.882.882 0 010 1.766h-2.305v1.77h9.19zm-.294-14.693v-5.852H39.887v5.852h19.557zm-19.557 16.46v5.853h19.557v-5.853H39.887zm16.251 3.81H43.193a.883.883 0 010-1.767h12.945a.883.883 0 010 1.767zM43.193 32.12h12.945a.882.882 0 110 1.765H43.193a.882.882 0 110-1.765zm6.473-7.811a.883.883 0 01-.883-.883v-1.413a.883.883 0 111.765 0v1.413a.882.882 0 01-.882.883zm0-4.358a.883.883 0 01-.883-.883v-1.413a.882.882 0 011.765 0v1.413a.882.882 0 01-.882.883zm0-4.356a.883.883 0 01-.883-.883v-.178a.874.874 0 00-.207-.568.884.884 0 011.351-1.138c.401.477.621 1.083.621 1.706v.178a.883.883 0 01-.882.883zM8.621 37.262h5.488a.883.883 0 010 1.767H8.621a.884.884 0 010-1.767zm12.243-2.512H8.621a.883.883 0 010-1.767h12.243a.884.884 0 010 1.767zm0-4.298H8.621a.884.884 0 010-1.767h12.243a.884.884 0 010 1.767zm0-8.538H8.621a.884.884 0 010-1.767h12.243a.883.883 0 010 1.767zm0 4.278H8.621a.884.884 0 010-1.767h12.243a.884.884 0 010 1.767zm25.633-12.541h-.987c-.016.249-.039.497-.069.744a1.557 1.557 0 01-1.548 1.366h-2.277a9.37 9.37 0 01-.537 1.299l1.609 1.61c.557.557.613 1.444.129 2.061a12.852 12.852 0 01-2.204 2.206 1.56 1.56 0 01-2.062-.128l-1.609-1.611a9.242 9.242 0 01-1.298.538v2.277a1.56 1.56 0 01-1.366 1.55 12.893 12.893 0 01-3.118 0 1.56 1.56 0 01-1.367-1.55v-2.277a9.204 9.204 0 01-1.255-.518v6.79a.883.883 0 01-1.766 0v-5.095a1.558 1.558 0 01-1.947.024 12.882 12.882 0 01-2.204-2.205 1.56 1.56 0 01.129-2.062l1.609-1.61a9.5 9.5 0 01-.538-1.299h-2.276a1.56 1.56 0 01-1.549-1.366c-.03-.247-.052-.495-.068-.744H7.559a.29.29 0 00-.208.086l-4.552 4.555a.293.293 0 00-.086.208v25.451c0 .162.132.294.294.294h16.839a8.563 8.563 0 01-.009-.36c0-4.009 3.04-7.321 6.935-7.75v-4.006a.883.883 0 011.766 0v4.011c3.873.451 6.89 3.751 6.89 7.745 0 4.301-3.497 7.799-7.796 7.799-3.561 0-6.57-2.403-7.498-5.672h-2.41v.887a.883.883 0 11-1.765 0v-.887H3.007a2.062 2.062 0 01-2.06-2.061V18.5c0-.551.214-1.068.603-1.457l4.553-4.555c.389-.39.906-.604 1.456-.604h12.38a11.2 11.2 0 01.058-.609c.094-.78.76-1.367 1.548-1.367h2.277a9.32 9.32 0 01.537-1.299L22.75 7a1.562 1.562 0 01-.129-2.063 12.852 12.852 0 012.205-2.205 1.556 1.556 0 012.061.129l1.609 1.61a9.242 9.242 0 011.298-.538V1.655A1.56 1.56 0 0131.16.106a13.01 13.01 0 013.118 0 1.56 1.56 0 011.367 1.549v2.278c.445.146.88.326 1.297.538l1.609-1.61a1.559 1.559 0 012.062-.129c.82.642 1.562 1.384 2.204 2.205A1.56 1.56 0 0142.688 7l-1.609 1.609c.211.419.392.854.537 1.299h2.277a1.56 1.56 0 011.549 1.367c.024.202.043.406.058.609h.997a.883.883 0 010 1.767zM27.632 49.918a6.038 6.038 0 006.03-6.033 6.039 6.039 0 00-6.03-6.033 6.038 6.038 0 00-6.029 6.033 6.038 6.038 0 006.029 6.033zM43.71 11.675h-2.244a1.557 1.557 0 01-1.491-1.104 7.64 7.64 0 00-.525-1.269 1.56 1.56 0 01.274-1.835l1.587-1.587a11.117 11.117 0 00-1.641-1.641l-1.586 1.587a1.558 1.558 0 01-1.834.275 7.439 7.439 0 00-1.269-.525 1.559 1.559 0 01-1.102-1.492V1.839a10.97 10.97 0 00-2.32 0v2.245c0 .686-.443 1.285-1.103 1.491a7.664 7.664 0 00-1.268.525 1.558 1.558 0 01-1.834-.274l-1.586-1.587a11.117 11.117 0 00-1.641 1.641l1.587 1.587a1.56 1.56 0 01.274 1.835 7.57 7.57 0 00-.525 1.269 1.556 1.556 0 01-1.491 1.103h-2.244a11.238 11.238 0 000 2.321h2.244c.687 0 1.286.443 1.491 1.103.136.437.313.864.525 1.269a1.56 1.56 0 01-.274 1.835l-1.587 1.587a11.166 11.166 0 001.641 1.641l1.586-1.587a1.557 1.557 0 011.834-.275c.405.213.832.389 1.268.526.66.205 1.103.804 1.103 1.491v2.246c.769.08 1.551.08 2.32 0v-2.246c0-.687.443-1.286 1.102-1.491a7.643 7.643 0 001.269-.526 1.557 1.557 0 011.834.275l1.586 1.587a11.11 11.11 0 001.641-1.64l-1.587-1.588a1.56 1.56 0 01-.274-1.835c.212-.405.389-.832.525-1.268a1.557 1.557 0 011.49-1.104h2.245a11.272 11.272 0 000-2.32zm-13.732 1.159a2.745 2.745 0 012.741-2.742 2.745 2.745 0 012.741 2.742 2.745 2.745 0 01-2.741 2.742 2.745 2.745 0 01-2.741-2.742zm3.716 0a.976.976 0 00-.975-.975.976.976 0 000 1.952.977.977 0 00.975-.977zm-.975 6.237a6.243 6.243 0 01-6.234-6.237 6.242 6.242 0 018.45-5.83.882.882 0 11-.628 1.651 4.474 4.474 0 00-6.056 4.179 4.474 4.474 0 004.468 4.471 4.474 4.474 0 004.086-6.281.883.883 0 011.613-.716c.355.8.535 1.65.535 2.526a6.243 6.243 0 01-6.234 6.237zm-7.587 23.458l2.061 2.063 2.94-2.941a.882.882 0 111.248 1.249l-3.564 3.566a.884.884 0 01-1.248 0l-2.685-2.688a.883.883 0 011.248-1.249zm-8.291 6.431c.488 0 .883.395.883.882v1.414a.883.883 0 01-1.765 0v-1.414c0-.487.395-.882.882-.882zm-.2 4.4a.885.885 0 011.142.506c.085.221.26.403.478.496a.882.882 0 11-.692 1.624 2.664 2.664 0 01-1.433-1.483.885.885 0 01.505-1.143zm4.197 1.071h1.413a.884.884 0 010 1.767h-1.413a.883.883 0 010-1.767zm4.355 0h1.413a.883.883 0 010 1.767h-1.413a.883.883 0 010-1.767zm4.355 0h1.413a.883.883 0 010 1.767h-1.413a.883.883 0 010-1.767zm4.355 0h1.412a.883.883 0 010 1.767h-1.412a.883.883 0 010-1.767z"/></svg>