<svg xmlns="http://www.w3.org/2000/svg" width="62" height="61"><path fill-rule="evenodd" fill="#AAB5C9" d="M60.646 60.503H57.02a.896.896 0 010-1.793h3.626a.896.896 0 010 1.793zm-.332-2.945h-2.177a.896.896 0 01-.679-.313l-5.588-6.511a2.952 2.952 0 01-.557-.981.958.958 0 00-.045.219l-.531 6.759a.895.895 0 01-.892.827h-2.053a.897.897 0 01-.891-.804l-.877-8.462a2.76 2.76 0 01.504-1.896l5.027-6.997.101-6.48-4.201-2.554c-.235.31-.598.52-1.013.545l-1.788.109a8.257 8.257 0 01-.08.189l1.154 1.347a1.39 1.39 0 01-.072 1.876l-1.578 1.581a1.385 1.385 0 01-1.892.057l-1.34-1.187-.086.035-.109 1.79a1.384 1.384 0 01-1.378 1.297H37.04a1.385 1.385 0 01-1.376-1.28l-.134-1.766a6.323 6.323 0 01-.191-.076l-1.34 1.187a1.383 1.383 0 01-1.889-.055l-1.581-1.584a1.389 1.389 0 01-.072-1.874l1.155-1.348a5.356 5.356 0 01-.08-.189l-1.788-.109a1.382 1.382 0 01-1.295-1.378v-.492l-1.295-1.147c-.46.232-.935.428-1.421.591l-.109 1.788c-.051.841-.75 1.5-1.591 1.5h-1.498a4.277 4.277 0 01-3.662 3.383l-4.571.564a2.068 2.068 0 01-1.273-.248l-1.813-1.009-.049 3.635 6.105 6.356a2.72 2.72 0 01.421 3.249l-3.767 9.174a.897.897 0 01-.829.554H10.91a.894.894 0 01-.874-1.092l1.833-8.162-1.51-1.606a.896.896 0 111.304-1.228l1.65 1.754a1.576 1.576 0 01.291 1.522l-1.576 7.021h.47l3.562-8.676c.018-.043.039-.085.062-.124a.93.93 0 00-.133-1.135l-5.353-5.574-5.754 16.697a.895.895 0 01-.846.603H1.718a.896.896 0 01-.888-1.011l2.311-17.943.059-7.074a4.774 4.774 0 011.191-3.117l.415-.471a3.24 3.24 0 01.348-.336 2.665 2.665 0 01-.504-1.83l.197-2.088a2.664 2.664 0 01.959-1.813 2.663 2.663 0 011.959-.604l.826.079a2.667 2.667 0 011.811.959c.456.553.67 1.248.603 1.961l-.197 2.089a2.666 2.666 0 01-.803 1.668l4.414 2.831a.311.311 0 00.186.041l4.616-.493-.133-1.742a10.622 10.622 0 01-1.583-.642l-1.342 1.188a1.595 1.595 0 01-2.184-.066l-2.277-2.279a1.605 1.605 0 01-.082-2.169l1.148-1.34a10.791 10.791 0 01-.666-1.575l-1.787-.108a1.599 1.599 0 01-1.497-1.594v-3.223c0-.83.646-1.529 1.472-1.592l1.76-.134c.171-.544.386-1.073.643-1.584l-1.188-1.344a1.598 1.598 0 01.066-2.186l2.277-2.279a1.601 1.601 0 012.166-.083l1.339 1.15c.556-.29 1.136-.531 1.735-.719l.134-1.761a1.603 1.603 0 011.59-1.475h3.22c.842 0 1.541.659 1.592 1.5l.109 1.788c.541.181 1.068.403 1.573.667l1.34-1.15a1.6 1.6 0 012.165.083l2.277 2.28c.595.595.624 1.556.066 2.185l-1.187 1.344c.256.512.471 1.041.643 1.585l1.759.133a1.603 1.603 0 011.472 1.593v2.668c.239-.418.69-.701 1.199-.701h2.233c.728 0 1.333.57 1.378 1.297l.109 1.791c.063.025.126.051.188.079l1.345-1.155a1.385 1.385 0 011.876.071l1.578 1.581c.368.365.485.893.347 1.365l7.081 3.85a2.68 2.68 0 01.259-.791l.955-1.866a2.68 2.68 0 013.604-1.164l.738.379a2.658 2.658 0 011.328 1.562c.22.682.161 1.408-.165 2.045l-.955 1.867a2.662 2.662 0 01-.854.979c.602.73.948 1.655.948 2.633v3.506a.896.896 0 11-1.791 0v-3.506c0-.859-.469-1.647-1.223-2.058l-1.271-.691-.151-.077c-.051-.027-.098-.056-.147-.085l-8.926-4.853a3.425 3.425 0 001.623 2.625l5.847 3.557.022.012 1.854 1.129a.896.896 0 01-.93 1.531l-.51-.31-.079 5.099 3.891 1.596v-.369a.896.896 0 111.791 0v1.687l-.002.058v.019l-.005.046-.002.014v.003l-.003.019a.771.771 0 01-.014.074l-.001.003-.001.002-1.606 6.491a.826.826 0 00.07.579l3.638 6.925a.894.894 0 01-.793 1.313zM47.981 47.443a.967.967 0 00-.176.665l.794 7.658h.418l.466-5.936a2.756 2.756 0 01.877-1.808l.863-.8.198-4.567-3.44 4.788zm6.992-19.164a.881.881 0 00.346.462l.267.145.565.289a.88.88 0 00.677.055.878.878 0 00.517-.441l.955-1.867a.883.883 0 00-.385-1.194l-.738-.378a.888.888 0 00-1.194.385l-.955 1.866a.884.884 0 00-.055.678zM2.736 55.638h.662l5.607-16.271-4.18.056-2.089 16.215zm6.287-32.314a.883.883 0 00-.601-.317l-.825-.079a.883.883 0 00-.967.801l-.197 2.088a.89.89 0 00.559.91c.397-.029.801.015 1.19.138a.887.887 0 00.843-.803l.198-2.089a.885.885 0 00-.2-.649zm5.773 9.229c-.46.049-.93-.058-1.322-.3l-.013-.009-5.462-3.503a1.337 1.337 0 00-.185-.101l-.749-.071c-.052-.005-.103-.014-.154-.023a1.438 1.438 0 00-.762.454l-.415.47a2.985 2.985 0 00-.743 1.947l-.052 6.211 4.445-.059.054-4.096-1.658-.923a.898.898 0 01-.348-1.219.893.893 0 011.218-.347l2.11 1.173.03.017 3.11 1.731a.298.298 0 00.183.035l4.572-.562a2.485 2.485 0 001.958-1.445l-5.817.62zM34.051 16.91l-2.201-.168a.897.897 0 01-.801-.678 8.918 8.918 0 00-.941-2.322.896.896 0 01.104-1.044l1.48-1.673-2.018-2.019-1.676 1.439a.893.893 0 01-1.044.087 8.924 8.924 0 00-2.307-.978.895.895 0 01-.664-.812l-.135-2.228h-2.854l-.168 2.203a.896.896 0 01-.676.802 8.933 8.933 0 00-2.444 1.013.892.892 0 01-1.044-.088l-1.676-1.439-2.018 2.02 1.48 1.673a.898.898 0 01.104 1.044 8.941 8.941 0 00-.942 2.322.895.895 0 01-.801.677l-2.2.169v2.856l2.226.136a.894.894 0 01.81.664c.216.812.545 1.59.978 2.309a.898.898 0 01-.088 1.045l-1.438 1.678 2.018 2.019 1.671-1.48a.891.891 0 011.043-.104c.729.422 1.51.74 2.321.942a.896.896 0 01.676.802l.168 2.202h2.854l.135-2.228a.896.896 0 01.664-.812 8.91 8.91 0 002.183-.906.891.891 0 011.043.104l1.672 1.48 2.017-2.019-1.437-1.678a.896.896 0 01-.088-1.045 8.92 8.92 0 00.977-2.309.896.896 0 01.811-.664l2.226-.136V16.91zm.715 4.549l.47.404c.097-.042.195-.083.294-.121l.072-.952a1.595 1.595 0 01-.836.669zm9.539 6.093l-.337-.024a.9.9 0 01-.792-.645 5.19 5.19 0 00-.411-1.017.897.897 0 01.12-1.017l1.084-1.225a.89.89 0 01.224-.284l-1.022-1.025-1.506 1.294a.894.894 0 01-1.017.104 5.282 5.282 0 00-1.009-.428.897.897 0 01-.631-.803l-.121-1.994h-1.466l-.151 1.981a.898.898 0 01-.645.793c-.383.111-.75.263-1.088.45a.892.892 0 01-1.018-.103l-1.505-1.294-1.026 1.028.625.728.015.017.014.017.007.007.652.737a.898.898 0 01.121 1.012c-.011.022-2.742 3.155-2.742 3.155a1.672 1.672 0 01-.171.146l1.721.105a.896.896 0 01.802.631c.107.351.251.691.428 1.009a.898.898 0 01-.104 1.019l-1.292 1.506 1.037 1.039 1.494-1.324a.897.897 0 011.016-.12c.317.17.658.308 1.013.41.36.104.617.42.646.793l.151 1.981h1.466l.121-1.993a.897.897 0 01.631-.802c.326-.1.641-.231.935-.389a.897.897 0 011.016.12l1.494 1.324 1.037-1.039-1.292-1.506a.898.898 0 01-.103-1.019c.176-.318.32-.658.428-1.009a.895.895 0 01.801-.631l1.641-.1a5.198 5.198 0 01-1.291-1.615zm11.579 22.601a2.608 2.608 0 01-.223-1.843l1.421-5.744-3.797-1.558-.336 7.75a1.16 1.16 0 00.279.808l5.32 6.2h.284l-2.948-5.613zM38.093 31.814a3.466 3.466 0 01-3.461-3.464 3.466 3.466 0 013.461-3.464 3.466 3.466 0 013.46 3.464 3.466 3.466 0 01-3.46 3.464zm0-5.136c-.921 0-1.671.751-1.671 1.672 0 .922.75 1.671 1.671 1.671a1.672 1.672 0 000-3.343zM22.33 24.793c-3.607 0-6.541-2.936-6.541-6.546 0-3.61 2.934-6.547 6.541-6.547 1.475 0 2.921.505 4.072 1.423a.896.896 0 01-1.115 1.403 4.699 4.699 0 00-2.957-1.034 4.757 4.757 0 00-4.75 4.755 4.758 4.758 0 004.75 4.755 4.759 4.759 0 004.649-5.734.896.896 0 011.753-.367c.092.44.138.893.138 1.346 0 3.61-2.934 6.546-6.54 6.546zm28.265-2.971c-.137.568-.704.784-1.152.643l-2.78-.674a.899.899 0 01-.659-1.083.894.894 0 011.081-.659l.668.161a10.376 10.376 0 00-8.148-3.918.896.896 0 010-1.792c3.891 0 7.462 1.814 9.747 4.849l.142-.589a.895.895 0 111.74.422l-.639 2.64zM20.935 2.288A15.318 15.318 0 007.674 9.885l.876-.319a.895.895 0 11.614 1.683l-2.951 1.079c-.489.179-1.141-.193-1.215-.717L3.987 8.84a.895.895 0 111.682-.615l.347.952A17.103 17.103 0 0120.935.494a.897.897 0 010 1.794zM4.98 58.71a.896.896 0 010 1.793H1.354a.896.896 0 010-1.793H4.98zm5.601 0h3.625a.896.896 0 010 1.793h-3.625a.896.896 0 010-1.793zm35.774 0h3.625a.897.897 0 010 1.793h-3.625a.896.896 0 110-1.793z"/></svg>