<svg xmlns="http://www.w3.org/2000/svg" width="56" height="56"><path fill-rule="evenodd" fill="#99A1AF" d="M43.423 55.487H21.407v-1.834h22.016c5.57-.006 10.084-4.517 10.091-10.083V18.119L45.621 2.344a5.69 5.69 0 00-4.848 7.463l.987 2.96.365-.365a1.839 1.839 0 012.596 0l2.371 2.37.001.001a1.831 1.831 0 01-.001 2.592l-2.727 2.726a19.954 19.954 0 013.645 11.561c0 11.12-9.054 20.168-20.182 20.168a20.124 20.124 0 01-6.477-1.063 5.511 5.511 0 01-5.448 4.73h-5.505a5.504 5.504 0 01-4.024-1.746 5.494 5.494 0 01.267-7.769 5.492 5.492 0 01-2.047-8.957 5.496 5.496 0 01-1.82-9.947 5.496 5.496 0 01-2.356-5.681l1.798.364a3.672 3.672 0 003.596 4.401h5.504a3.668 3.668 0 100-7.333H5.812a3.643 3.643 0 00-2.936 1.466l-1.468-1.101a5.461 5.461 0 014.404-2.198h2.462a1.827 1.827 0 01.29-2.214l2.371-2.37a1.839 1.839 0 012.596 0l2.728 2.727a20.076 20.076 0 017.532-3.238 6.415 6.415 0 01-.003-9.978 6.424 6.424 0 019.032.952 6.413 6.413 0 01-.952 9.024 19.909 19.909 0 016.177 2.368l.031.017c.129.075 1.201.904 1.322.853l.911-.91-1.277-3.83a7.518 7.518 0 01-.386-2.38c0-4.155 3.371-7.522 7.529-7.522.347 0 .665.197.82.507l8.257 16.5a.929.929 0 01.097.41V43.57c-.008 6.578-5.343 11.909-11.926 11.917zm-31.19-41.788l-2.372 2.369.917.918h.538a5.479 5.479 0 012.193.456c.412-.414.84-.809 1.285-1.184l-2.561-2.559zm33.562 2.369l-2.372-2.369-2.561 2.559a20.264 20.264 0 012.371 2.371l2.562-2.561zM10.398 53.653h5.505a3.668 3.668 0 100-7.334h-5.505a3.668 3.668 0 100 7.334zm-1.834-9.167h5.504a3.668 3.668 0 100-7.334H8.564a3.669 3.669 0 00-3.67 3.668 3.668 3.668 0 003.67 3.666zm2.752-16.5H5.812a3.673 3.673 0 00-3.67 3.666 3.672 3.672 0 003.67 3.667h5.504a3.668 3.668 0 100-7.333zM32.415 6.902a4.586 4.586 0 00-8.256-2.75 4.581 4.581 0 00.917 6.417v-.917a.916.916 0 01-.917-.917V5.068c0-.506.41-.916.917-.916h5.504c.507 0 .918.41.918.916v3.667a.917.917 0 01-.918.917v.917a4.583 4.583 0 001.835-3.667zm-2.752.917V5.985h-3.67v1.834h3.67zm-2.752 1.833v1.855a20.773 20.773 0 011.834 0V9.652h-1.834zm2.666 3.75a18.35 18.35 0 00-14.501 5.072 5.488 5.488 0 01-.722 8.594 5.513 5.513 0 012.388 3.668h1.913v1.833h-1.913a5.493 5.493 0 01-1.457 2.888 5.473 5.473 0 012.236 1.084l1.904-1.099.918 1.588-1.585.914a5.482 5.482 0 01-.933 6.888 5.525 5.525 0 013.447 3.949c2.092.8 4.315 1.209 6.556 1.205 10.117 0 18.347-8.224 18.347-18.334 0-9.299-7.418-17.363-16.598-18.25zm-2.666 5.417h1.834v3.667h-1.834v-3.667zm6.543 1.262l1.589.916-1.834 3.176-1.589-.917 1.834-3.175zm7.217 10.655v1.833h-3.669v-1.833h3.669zm-5.358 6.295l.917-1.588 3.178 1.833-.917 1.588-3.178-1.833zm-1.859 6.193l-1.834-3.175 1.588-.917 1.835 3.175-1.589.917zm-4.709 1.262h-1.834V40.82h1.834v3.666zm-3.669-12.834a2.75 2.75 0 014.529-2.096l8.769-5.112.924 1.583-8.767 5.111a2.751 2.751 0 11-5.455.514zm2.752.917a.916.916 0 10.001-1.833.916.916 0 00-.001 1.833zm0 15.584a16.388 16.388 0 01-6.8-1.46l.757-1.67a14.684 14.684 0 0015.52-2.18c6.183-5.236 6.948-14.489 1.708-20.668-5.24-6.178-14.499-6.942-20.682-1.706l-1.188-1.397a16.526 16.526 0 0110.685-3.92c9.105 0 16.512 7.402 16.512 16.5 0 9.099-7.407 16.501-16.512 16.501zm-7.487-21.878l-.917 1.588-3.178-1.833.918-1.587 3.177 1.832zm1.859-6.196l1.835 3.176-1.589.916-1.834-3.175 1.588-.917zm-1.589 22.23l1.835-3.176 1.589.917-1.835 3.176-1.589-.917z"/></svg>