<svg xmlns="http://www.w3.org/2000/svg" width="21" height="21"><path fill-rule="evenodd" fill="#FFF" d="M5.033 17.294H3.471v-1.562h1.562v1.562zm-1.562-7.81h1.562v1.561H3.471V9.484zm1.562 4.685H3.471v-1.561h1.562v1.561zm3.124 3.125H6.595v-1.562h1.562v1.562zm-1.562-7.81h1.562v1.561H6.595V9.484zm1.562 4.685H6.595v-1.561h1.562v1.561zm10.778-4.681V7.844H2.065v10.309c0 .431.35.781.781.781h6.642a6.916 6.916 0 001.393 1.562H2.846a2.346 2.346 0 01-2.343-2.343V4.407a2.346 2.346 0 012.343-2.344h.937V.502h1.562v1.561h10.31V.502h1.562v1.561h.937a2.346 2.346 0 012.343 2.344v6.474a6.868 6.868 0 00-1.562-1.393zm0-5.081a.783.783 0 00-.781-.781h-.937v1.562h-1.562V3.626H5.345v1.562H3.783V3.626h-.937a.782.782 0 00-.781.781v1.874h16.87V4.407zM9.719 9.484h1.562v1.561H9.719V9.484zm5.506.468a5.279 5.279 0 015.272 5.272 5.278 5.278 0 01-5.272 5.272 5.278 5.278 0 01-5.272-5.272 5.279 5.279 0 015.272-5.272zm0 8.982a3.714 3.714 0 003.71-3.71 3.714 3.714 0 00-3.71-3.71 3.714 3.714 0 00-3.71 3.71 3.714 3.714 0 003.71 3.71zm.742-4.491h1.328v1.562h-2.89v-3.397h1.562v1.835z"/></svg>