<svg xmlns="http://www.w3.org/2000/svg" width="35" height="27"><path fill-rule="evenodd" fill="#FFF" d="M33.229 26.884H1.771a1.747 1.747 0 01-1.748-1.746V1.86C.023.896.806.114 1.771.114h31.458c.965 0 1.748.782 1.748 1.746v23.278c0 .964-.783 1.746-1.748 1.746zm.583-25.024a.583.583 0 00-.583-.582H1.771a.583.583 0 00-.583.582v23.278c0 .322.261.582.583.582h31.458c.322 0 .583-.26.583-.582V1.86zM18.999 14.747a2.328 2.328 0 01-2.998 0L2.561 3.469a.581.581 0 11.749-.891l13.44 11.278a1.164 1.164 0 001.5 0L31.689 2.578a.584.584 0 01.955.496.58.58 0 01-.205.395l-13.44 11.278zm-8.333.101a.582.582 0 11.852.794l-8.156 8.729a.585.585 0 01-.994-.221.58.58 0 01.142-.572l8.156-8.73zm13.106-.181a.583.583 0 01.562.181l8.156 8.729a.583.583 0 01-.852.794l-8.156-8.729a.58.58 0 01.29-.975z"/></svg>