<svg xmlns="http://www.w3.org/2000/svg" width="21" height="20"><path fill-rule="evenodd" fill="#FFF" d="M19.018 5.054V1.255h-1.266V-.011h2.532v5.065h-1.266zm.38 2.991a.768.768 0 00.24.584 2.033 2.033 0 010 2.976.771.771 0 00-.243.587 2.04 2.04 0 01-.594 1.508 1.998 1.998 0 01-.416.309v5.999l-3.165-1.582-3.165 1.582V14.01a1.938 1.938 0 01-.416-.309 2.038 2.038 0 01-.595-1.507.764.764 0 00-.243-.586 2.035 2.035 0 010-2.976.768.768 0 00.243-.587 2.037 2.037 0 012.103-2.103.729.729 0 00.586-.243 2.035 2.035 0 012.976 0c.152.162.366.25.587.243a2.072 2.072 0 011.507.596c.398.398.613.945.595 1.507zm-6.077 9.913l1.899-.949 1.899.949v-3.632a.74.74 0 00-.41.212 2.035 2.035 0 01-2.976 0 .76.76 0 00-.412-.227v3.647zm4.811-9.955v-.056a.768.768 0 00-.795-.74 2.081 2.081 0 01-1.557-.645l-.011-.011a.788.788 0 00-1.112.011 2.086 2.086 0 01-1.555.645.745.745 0 00-.569.225.756.756 0 00-.225.569 2.036 2.036 0 01-.681 1.593.77.77 0 00.037 1.086c.429.401.664.969.644 1.555a.768.768 0 00.796.794h.069c.564 0 1.102.234 1.487.646l.011.011a.786.786 0 001.112-.011 2.02 2.02 0 011.554-.645.73.73 0 00.57-.225.763.763 0 00.225-.569 2.032 2.032 0 01.642-1.556h.001l.037-.036a.768.768 0 00-.037-1.087 2.032 2.032 0 01-.643-1.554zm-2.912 4.648a2.532 2.532 0 110-5.064 2.532 2.532 0 010 5.064zm0-3.799a1.266 1.266 0 100 2.533 1.266 1.266 0 000-2.533zm0-8.863h1.266v1.266H15.22V-.011zM6.357 2.522h7.597v1.266H6.357V2.522zM1.293 13.284h8.23v1.266H.027V-.011h13.927v1.266H1.293v12.029zm1.266-7.597h7.597v1.266H2.559V5.687zm6.33 6.331H7.623v-1.266h1.266v1.266zm-6.33 0v-1.266h3.798v1.266H2.559zm0-3.799h6.33v1.266h-6.33V8.219z"/></svg>