<svg xmlns="http://www.w3.org/2000/svg" width="39" height="39"><path fill-rule="evenodd" fill="#FFF" d="M38.633 33.054l-1.937 3.216a4.542 4.542 0 01-2.69 2.071c-.972.262-1.974.393-2.981.388-4.374 0-10.737-2.296-19.286-10.836C.993 17.157.121 9.869 1.281 5.646a4.542 4.542 0 012.072-2.688l3.221-1.932a2.24 2.24 0 013.016.677l5.137 7.698a2.247 2.247 0 01-.489 3.008l-2.884 2.241a.959.959 0 00-.253 1.233l.234.426c.771 1.411 1.733 3.172 5.281 6.717 3.547 3.546 5.308 4.505 6.723 5.276l.427.235a.96.96 0 001.23-.259l2.244-2.883a2.251 2.251 0 013.011-.488l7.704 5.133a2.234 2.234 0 01.678 3.014zm-1.387-1.958l-7.704-5.133a.976.976 0 00-1.306.212l-2.244 2.881a2.222 2.222 0 01-2.849.588l-.417-.23c-1.486-.809-3.335-1.816-7.014-5.492-3.679-3.675-4.687-5.523-5.498-7.008l-.229-.416a2.216 2.216 0 01.588-2.846l2.884-2.241a.976.976 0 00.212-1.306l-2.343-3.51-2.79-4.187a.97.97 0 00-1.309-.293L4.006 4.046a3.282 3.282 0 00-1.502 1.935C1.433 9.88 2.32 16.69 12.637 26.997 22.953 37.304 29.771 38.19 33.673 37.119a3.276 3.276 0 001.934-1.497l1.933-3.219a.968.968 0 00-.294-1.307zM22.459 13.382a4.443 4.443 0 014.44 4.436.635.635 0 01-1.269 0 3.173 3.173 0 00-3.171-3.168.634.634 0 110-1.268zm0-3.802c4.551.005 8.24 3.691 8.245 8.238a.634.634 0 01-1.268 0 6.983 6.983 0 00-6.977-6.971.634.634 0 110-1.267zm11.417 8.872a.634.634 0 01-.635-.634c-.006-5.947-4.83-10.766-10.782-10.772a.634.634 0 110-1.268c6.652.008 12.043 5.394 12.051 12.04 0 .35-.284.634-.634.634z"/></svg>