<svg xmlns="http://www.w3.org/2000/svg" width="55" height="60"><path fill-rule="evenodd" fill="#AAB5C9" d="M54.137 8.063l-2.566-2.258 2.566-2.258c.4-.352.536-.9.349-1.397a1.26 1.26 0 00-1.186-.819H42.681V.875a.88.88 0 00-1.76 0v11.862l-7.228 3.922a2.8 2.8 0 00-.286-.924l-1.019-1.987a2.784 2.784 0 00-3.743-1.207l-.787.403a2.759 2.759 0 00-1.38 1.621 2.758 2.758 0 00.172 2.12l1.018 1.987c.238.464.59.831 1.003 1.088-.541.728-.797 1.622-1.061 2.551l-.19.672a.88.88 0 001.694.478l.19-.669c.385-1.36.622-2.088 1.376-2.497l1.352-.735.167-.084c.056-.029.107-.06.16-.092l9.636-5.229a3.721 3.721 0 01-1.777 2.989l-6.266 3.804c-.007.004-.015.008-.021.013l-1.951 1.184a.88.88 0 00.841 1.542l-1.48 4.471-1.081.443-2.942 1.204.848-2.994a.88.88 0 00-1.694-.478l-1.34 4.731a.894.894 0 00-.031.192l-.351 6.434c-.01.245.042.708-.072.948l-3.892 8.183h-2.829a3.007 3.007 0 00-3.005 3.003v2.538a2.973 2.973 0 00-1.244-.271H6.525a3.007 3.007 0 00-3.005 3.002v3.151H1.407a.88.88 0 100 1.758H53.3a.88.88 0 100-1.758h-2.289V35.575a3.007 3.007 0 00-3.005-3.003h-5.325V17.23a5.477 5.477 0 00.884-4.7.876.876 0 00-.884-.646v-1.606H53.3c.532 0 .997-.321 1.185-.819a1.252 1.252 0 00-.348-1.396zm-25.983 7.042c.083-.26.263-.471.506-.595l.787-.404a1.02 1.02 0 011.374.444l1.019 1.987a1.02 1.02 0 01-.339 1.311l-.286.155-.606.31c-.5.256-1.117.057-1.374-.443l-1.019-1.987a1.012 1.012 0 01-.062-.778zm-1.769 31.986a2.98 2.98 0 00-.966-.257l.966-1.282v1.539zm4.179-7.087c.423-.506.54-1.098.634-1.575.024-.113.459-2.484.459-2.484s.411.256.454.275a.093.093 0 01.054.076l.479 4.864h-2.95l.87-1.156zm5.205-4.853l-.744 6.004h-.613l-.495-5.031a1.852 1.852 0 00-1.037-1.487l-.885-.561.589-3.266s2.485 2.95 2.542 3.025c.514.668.69.935.643 1.316zm-9.507 4.257c.178-.536.26-1.08.246-1.634l.32-5.867 4.071-1.667-.74 4.095-.006.034-.612 3.387c-.08.35-.15.882-.368 1.171l-5.948 7.894h-.49l3.527-7.413zM5.28 55.092c0-.684.558-1.242 1.245-1.242h7.183c.686 0 1.245.558 1.245 1.242v3.152H5.28v-3.152zm11.433 0v-5.268c0-.687.558-1.244 1.244-1.244h7.184c.686 0 1.244.557 1.244 1.244v8.42h-9.672v-3.152zM49.25 35.575v22.669h-9.672V52.97a.88.88 0 00-1.761 0v5.274h-9.672V44.162c0-.686.558-1.244 1.245-1.244h7.183c.686 0 1.244.558 1.244 1.244v4.409a.88.88 0 001.761 0V35.575c0-.687.558-1.243 1.244-1.243h7.183c.687 0 1.245.557 1.245 1.243zm-8.428-3.003a3.007 3.007 0 00-3.004 3.003v5.855a2.962 2.962 0 00-1.02-.261l.718-5.802c.141-1.131-.437-1.88-.995-2.605-.059-.077-3.48-4.136-3.48-4.136l2.099-6.34 5.781-3.51v13.796h-.099zm1.859-24.053V3.091h9.311l-2.005 1.764a1.265 1.265 0 000 1.9l2.005 1.764h-9.311z"/></svg>