<svg xmlns="http://www.w3.org/2000/svg" width="21" height="21"><path fill-rule="evenodd" fill="#FFF" d="M20.07 20.289a.726.726 0 01-1.025.004l-4.27-4.25a8.812 8.812 0 01-5.704 2.092c-4.875 0-8.842-3.957-8.842-8.82C.229 4.451 4.196.494 9.071.494s8.842 3.957 8.842 8.821a8.76 8.76 0 01-2.111 5.705l4.265 4.244a.726.726 0 01.003 1.025zM9.071 1.944c-4.076 0-7.392 3.306-7.392 7.371 0 4.063 3.316 7.371 7.392 7.371a7.377 7.377 0 005.206-2.147c.002-.002.003-.006.006-.008.005-.005.011-.007.017-.012a7.335 7.335 0 002.163-5.204c0-4.065-3.316-7.371-7.392-7.371z"/></svg>