<svg xmlns="http://www.w3.org/2000/svg" width="18" height="16"><path fill-rule="evenodd" fill-opacity=".302" fill="#FFF" d="M17.516 14.583a1.538 1.538 0 01-1.134.471H1.618c-.442 0-.82-.155-1.134-.471a1.541 1.541 0 01-.471-1.132V5.493c.294.327.632.618 1.013.871 2.42 1.644 4.082 2.797 4.985 3.458.381.282.69.5.928.656.237.159.553.319.948.482.394.164.762.246 1.103.246h.02c.341 0 .709-.082 1.103-.246.395-.163.711-.323.948-.482.238-.156.547-.374.928-.656 1.137-.822 2.802-1.974 4.995-3.458.381-.26.716-.551 1.003-.871v7.958c0 .441-.157.818-.471 1.132zm-1.244-9.291L11.578 8.55c-.067.047-.209.148-.427.305a11.787 11.787 0 01-1.063.708c-.204.12-.396.21-.576.27-.181.06-.348.09-.502.09h-.02c-.154 0-.321-.03-.502-.09-.18-.06-.373-.15-.577-.27-.204-.121-.377-.23-.521-.327a17.706 17.706 0 01-.542-.381 40.128 40.128 0 00-.426-.305 435.437 435.437 0 00-2.628-1.829 485.887 485.887 0 01-2.056-1.429c-.415-.28-.806-.666-1.174-1.157-.367-.492-.551-.948-.551-1.369 0-.521.138-.954.416-1.303.277-.347.674-.521 1.188-.521h14.765c.435 0 .811.157 1.129.472.317.313.476.691.476 1.132 0 .528-.164 1.032-.491 1.513a4.782 4.782 0 01-1.224 1.233z"/></svg>