<svg xmlns="http://www.w3.org/2000/svg" width="16" height="19"><path fill-rule="evenodd" fill-opacity=".302" fill="#FFF" d="M8.287.616c3.417-.005 6.541 2.515 7.158 5.881.567 3.094-.455 5.605-2.964 7.49-1.165.875-2.14 1.914-2.879 3.172a67.59 67.59 0 01-.597 1c-.362.587-1.089.588-1.445-.005-.494-.826-.993-1.645-1.621-2.379-.67-.784-1.452-1.439-2.249-2.086-1.61-1.306-2.522-3.01-2.695-5.082C.678 4.809 3.229 1.463 6.963.761c.435-.083.882-.098 1.324-.145zM5.032 7.988c-.007 1.792 1.44 3.248 3.247 3.266 1.769.018 3.244-1.449 3.254-3.238.01-1.809-1.435-3.287-3.218-3.293a3.255 3.255 0 00-3.283 3.265z"/></svg>