<svg xmlns="http://www.w3.org/2000/svg" width="39" height="39"><path fill-rule="evenodd" fill="#FFF" d="M9.031 7.379a.61.61 0 01-.241.05.652.652 0 01-.45-.183.644.644 0 010-.901l.095-.076a.486.486 0 01.114-.057.542.542 0 01.361-.038.397.397 0 01.121.038c.04.014.078.033.114.057l.095.076a.644.644 0 010 .901l-.095.075a.49.49 0 01-.114.058zm4.436 0a.61.61 0 01-.241.05.652.652 0 01-.45-.183.644.644 0 010-.901l.094-.076a.493.493 0 01.115-.057.542.542 0 01.361-.038.397.397 0 01.121.038c.04.014.078.033.114.057l.095.076a.644.644 0 010 .901l-.095.075a.51.51 0 01-.114.058zm4.435 0a.593.593 0 01-.24.05.65.65 0 01-.45-.183.644.644 0 010-.901l.094-.076a.493.493 0 01.115-.057.414.414 0 01.114-.038.538.538 0 01.246 0 .388.388 0 01.121.038.493.493 0 01.115.057l.095.076a.644.644 0 010 .901l-.095.075a.497.497 0 01-.115.058zm4.436 0a.593.593 0 01-.24.05.648.648 0 01-.45-.183.644.644 0 010-.901l.094-.076a.493.493 0 01.115-.057.414.414 0 01.114-.038.538.538 0 01.246 0 .397.397 0 01.121.038.468.468 0 01.114.057l.095.076a.642.642 0 010 .901l-.095.075a.47.47 0 01-.114.058zm4.436 0a.596.596 0 01-.241.05.652.652 0 01-.45-.183.644.644 0 010-.901l.095-.076a.493.493 0 01.115-.057.403.403 0 01.114-.038.538.538 0 01.246 0 .397.397 0 01.121.038c.04.014.079.033.114.057l.095.076a.644.644 0 010 .901l-.095.075a.47.47 0 01-.114.058zm4.436 0a.61.61 0 01-.241.05.652.652 0 01-.45-.183.644.644 0 010-.901l.095-.076a.486.486 0 01.114-.057.542.542 0 01.361-.038.397.397 0 01.121.038c.04.014.079.033.114.057l.095.076a.644.644 0 010 .901l-.095.075a.49.49 0 01-.114.058zm3.745-1.034l.095-.076a.486.486 0 01.114-.057.542.542 0 01.361-.038.397.397 0 01.121.038c.04.014.079.033.114.057l.095.076a.644.644 0 010 .901l-.095.075a.49.49 0 01-.114.058.61.61 0 01-.241.05.652.652 0 01-.45-.183.644.644 0 010-.901zm1.717 26.441H25.9a.634.634 0 010-1.267h10.772c.35 0 .634-.285.634-.635V5.528a.634.634 0 00-.634-.634H7.523a.634.634 0 00-.634.634v3.169h27.883a.633.633 0 010 1.268H6.889v2.536a.634.634 0 11-1.267 0V5.528c0-1.051.851-1.902 1.901-1.902h.634V1.09a.633.633 0 111.267 0v2.536h3.168V1.09a.634.634 0 011.268 0v2.536h3.168V1.09a.634.634 0 011.268 0v2.536h3.168V1.09a.634.634 0 011.267 0v2.536H25.9V1.09a.633.633 0 111.267 0v2.536h3.169V1.09a.633.633 0 111.267 0v2.536h3.168V1.09a.634.634 0 011.268 0v2.536h.633c1.05 0 1.901.851 1.901 1.902v25.356a1.901 1.901 0 01-1.901 1.902zM11.958 13.769a.634.634 0 010-1.268h22.18c.349 0 .633.283.633.634v15.214a.633.633 0 01-.633.633h-9.506a.633.633 0 010-1.267h1.901v-3.804h-6.337a.633.633 0 01-.633-.634V18.84h-7.605a.634.634 0 010-1.268h.634v-3.803h-.634zm15.843 13.946h5.703v-3.804h-5.703v3.804zm0-5.072h5.703V18.84h-5.703v3.803zm0-5.071h5.703v-3.803h-5.703v3.803zm-6.971 5.071h5.703V18.84H20.83v3.803zm0-5.071h5.703v-3.803H20.83v3.803zm-6.971 0h5.704v-3.803h-5.704v3.803zm-7.461-2.505l3.192 4.79a1.637 1.637 0 01-.356 2.194l-1.798 1.394a.359.359 0 00-.098.459l.147.27a15.81 15.81 0 003.24 4.124 15.901 15.901 0 004.085 3.221h.824l1.344-1.721a1.636 1.636 0 012.192-.356l4.789 3.193a1.63 1.63 0 01.493 2.197l-1.204 2.004a3.06 3.06 0 01-1.813 1.394 7.257 7.257 0 01-1.912.25c-2.775 0-6.794-1.446-12.159-6.815C.604 24.903.065 20.278.805 17.589A3.056 3.056 0 012.2 15.776l2-1.202a1.631 1.631 0 012.198.493zm-1.548.591l-2.002 1.204a1.802 1.802 0 00-.823 1.062c-.917 3.343 1.296 7.907 6.234 12.846 4.938 4.94 9.498 7.154 12.84 6.237a1.8 1.8 0 001.062-.824l1.204-2.003a.363.363 0 00-.111-.491l-4.788-3.194a.365.365 0 00-.489.08l-1.395 1.793c-.064.083-.137.16-.217.229-.009.009-.02.014-.028.021a1.61 1.61 0 01-1.831.177l-.257-.141a16.934 16.934 0 01-4.414-3.459 16.98 16.98 0 01-3.457-4.413l-.141-.259-.002-.002a1.62 1.62 0 01.429-2.076l1.793-1.395a.366.366 0 00.079-.49l-3.195-4.791a.363.363 0 00-.491-.111z"/></svg>