<svg 
 xmlns="http://www.w3.org/2000/svg"
 xmlns:xlink="http://www.w3.org/1999/xlink"
 width="18px" height="18px">
<path fill-rule="evenodd"  fill-opacity="0.302" fill="rgb(255, 255, 255)"
 d="M17.700,9.931 L16.085,9.931 C15.660,13.136 13.138,15.659 9.932,16.083 L9.932,17.699 C9.932,17.871 9.793,18.010 9.621,18.010 L8.378,18.010 C8.207,18.010 8.068,17.871 8.068,17.699 L8.068,16.083 C4.862,15.659 2.340,13.136 1.915,9.931 L0.300,9.931 C0.128,9.930 -0.011,9.791 -0.011,9.620 L-0.011,8.377 C-0.011,8.206 0.128,8.067 0.300,8.067 L1.915,8.067 C2.340,4.861 4.862,2.339 8.068,1.914 L8.068,0.298 C8.068,0.126 8.207,-0.012 8.378,-0.013 L9.621,-0.013 C9.793,-0.012 9.932,0.126 9.932,0.298 L9.932,1.914 C13.138,2.339 15.660,4.861 16.085,8.067 L17.700,8.067 C17.872,8.067 18.011,8.206 18.011,8.377 L18.011,9.620 C18.011,9.791 17.872,9.930 17.700,9.931 ZM9.000,3.715 C6.084,3.720 3.722,6.083 3.718,8.999 C3.718,11.916 6.083,14.282 9.000,14.282 C11.917,14.282 14.282,11.916 14.282,8.999 C14.282,6.081 11.917,3.715 9.000,3.715 ZM9.000,11.485 C7.627,11.485 6.514,10.371 6.514,8.999 C6.514,7.625 7.627,6.513 9.000,6.513 C10.373,6.513 11.486,7.625 11.486,8.999 C11.486,10.371 10.373,11.485 9.000,11.485 Z"/>
</svg>