<svg 
 xmlns="http://www.w3.org/2000/svg"
 xmlns:xlink="http://www.w3.org/1999/xlink"
 width="62px" height="60px">
<path fill-rule="evenodd"  fill="rgb(170, 181, 201)"
 d="M42.310,44.158 C42.310,43.671 42.705,43.275 43.193,43.275 L56.138,43.275 C56.626,43.275 57.021,43.671 57.021,44.158 C57.021,44.646 56.626,45.042 56.138,45.042 L43.193,45.042 C42.705,45.042 42.310,44.646 42.310,44.158 ZM59.738,50.621 C60.550,50.621 61.210,51.283 61.210,52.093 L61.210,58.535 C61.210,59.346 60.550,60.007 59.738,60.007 L39.593,60.007 C38.781,60.007 38.121,59.346 38.121,58.535 L38.121,56.187 C37.699,56.120 37.375,55.755 37.375,55.315 C37.375,54.873 37.699,54.509 38.121,54.444 L38.121,52.093 C38.121,51.283 38.781,50.621 39.593,50.621 L48.783,50.621 L48.783,48.851 L39.593,48.851 C38.781,48.851 38.121,48.191 38.121,47.379 L38.121,40.938 C38.121,40.126 38.781,39.466 39.593,39.466 L48.783,39.466 L48.783,37.695 L39.593,37.695 C38.781,37.695 38.121,37.035 38.121,36.223 L38.121,29.781 C38.121,28.970 38.781,28.310 39.593,28.310 L48.958,28.310 C48.848,28.162 48.783,27.980 48.783,27.782 L48.783,26.369 C48.783,25.882 49.178,25.486 49.666,25.486 C50.153,25.486 50.548,25.882 50.548,26.369 L50.548,27.782 C50.548,27.980 50.482,28.162 50.373,28.310 L59.738,28.310 C60.550,28.310 61.210,28.970 61.210,29.781 L61.210,36.223 C61.210,37.035 60.550,37.695 59.738,37.695 L50.548,37.695 L50.548,39.466 L59.738,39.466 C60.550,39.466 61.210,40.126 61.210,40.938 L61.210,47.379 C61.210,48.191 60.550,48.851 59.738,48.851 L56.972,48.851 C56.485,48.851 56.090,48.456 56.090,47.968 C56.090,47.479 56.485,47.085 56.972,47.085 L59.444,47.085 L59.444,41.232 L39.887,41.232 L39.887,47.085 L52.853,47.085 C53.340,47.085 53.735,47.479 53.735,47.968 C53.735,48.456 53.340,48.851 52.853,48.851 L50.548,48.851 L50.548,50.621 L59.738,50.621 ZM59.444,35.928 L59.444,30.076 L39.887,30.076 L39.887,35.928 L59.444,35.928 ZM39.887,52.388 L39.887,58.241 L59.444,58.241 L59.444,52.388 L39.887,52.388 ZM56.138,56.198 L43.193,56.198 C42.705,56.198 42.310,55.802 42.310,55.315 C42.310,54.827 42.705,54.431 43.193,54.431 L56.138,54.431 C56.626,54.431 57.021,54.827 57.021,55.315 C57.021,55.802 56.626,56.198 56.138,56.198 ZM43.193,32.120 L56.138,32.120 C56.626,32.120 57.021,32.514 57.021,33.003 C57.021,33.491 56.626,33.885 56.138,33.885 L43.193,33.885 C42.705,33.885 42.310,33.491 42.310,33.003 C42.310,32.514 42.705,32.120 43.193,32.120 ZM49.666,24.309 C49.178,24.309 48.783,23.914 48.783,23.426 L48.783,22.013 C48.783,21.524 49.178,21.129 49.666,21.129 C50.153,21.129 50.548,21.524 50.548,22.013 L50.548,23.426 C50.548,23.914 50.153,24.309 49.666,24.309 ZM49.666,19.951 C49.178,19.951 48.783,19.556 48.783,19.068 L48.783,17.655 C48.783,17.168 49.178,16.773 49.666,16.773 C50.153,16.773 50.548,17.168 50.548,17.655 L50.548,19.068 C50.548,19.556 50.153,19.951 49.666,19.951 ZM49.666,15.595 C49.178,15.595 48.783,15.199 48.783,14.712 L48.783,14.534 C48.783,14.268 48.670,14.078 48.576,13.966 C48.262,13.593 48.310,13.036 48.683,12.721 C49.056,12.407 49.613,12.455 49.927,12.828 C50.328,13.305 50.548,13.911 50.548,14.534 L50.548,14.712 C50.548,15.199 50.153,15.595 49.666,15.595 ZM8.621,37.262 L14.109,37.262 C14.597,37.262 14.992,37.658 14.992,38.145 C14.992,38.633 14.597,39.029 14.109,39.029 L8.621,39.029 C8.134,39.029 7.738,38.633 7.738,38.145 C7.738,37.658 8.134,37.262 8.621,37.262 ZM20.864,34.750 L8.621,34.750 C8.134,34.750 7.738,34.355 7.738,33.867 C7.738,33.379 8.134,32.983 8.621,32.983 L20.864,32.983 C21.351,32.983 21.747,33.379 21.747,33.867 C21.747,34.355 21.351,34.750 20.864,34.750 ZM20.864,30.452 L8.621,30.452 C8.134,30.452 7.738,30.056 7.738,29.568 C7.738,29.081 8.134,28.685 8.621,28.685 L20.864,28.685 C21.351,28.685 21.747,29.081 21.747,29.568 C21.747,30.056 21.351,30.452 20.864,30.452 ZM20.864,21.914 L8.621,21.914 C8.134,21.914 7.738,21.518 7.738,21.030 C7.738,20.542 8.134,20.147 8.621,20.147 L20.864,20.147 C21.351,20.147 21.747,20.542 21.747,21.030 C21.747,21.518 21.351,21.914 20.864,21.914 ZM20.864,26.192 L8.621,26.192 C8.134,26.192 7.738,25.796 7.738,25.309 C7.738,24.821 8.134,24.425 8.621,24.425 L20.864,24.425 C21.351,24.425 21.747,24.821 21.747,25.309 C21.747,25.796 21.351,26.192 20.864,26.192 ZM46.497,13.651 L45.510,13.651 C45.494,13.900 45.471,14.148 45.441,14.395 C45.347,15.174 44.681,15.761 43.893,15.761 L41.616,15.761 C41.470,16.206 41.290,16.642 41.079,17.060 L42.688,18.670 C43.245,19.227 43.301,20.114 42.817,20.731 C42.175,21.553 41.433,22.295 40.613,22.937 C39.995,23.421 39.108,23.366 38.551,22.809 L36.942,21.198 C36.524,21.410 36.089,21.590 35.644,21.736 L35.644,24.013 C35.644,24.802 35.057,25.468 34.278,25.563 C33.763,25.626 33.238,25.658 32.719,25.658 C32.199,25.658 31.675,25.626 31.160,25.563 C30.381,25.468 29.793,24.802 29.793,24.013 L29.793,21.736 C29.363,21.595 28.943,21.421 28.538,21.218 L28.538,28.008 C28.538,28.495 28.143,28.891 27.655,28.891 C27.167,28.891 26.772,28.495 26.772,28.008 L26.772,22.913 C26.214,23.371 25.402,23.390 24.825,22.937 C24.005,22.295 23.263,21.553 22.621,20.732 C22.137,20.114 22.193,19.227 22.750,18.670 L24.359,17.060 C24.148,16.642 23.968,16.206 23.821,15.761 L21.545,15.761 C20.757,15.761 20.091,15.174 19.996,14.395 C19.966,14.148 19.944,13.900 19.928,13.651 L7.559,13.651 C7.480,13.651 7.407,13.681 7.351,13.737 L2.799,18.292 C2.744,18.346 2.713,18.422 2.713,18.500 L2.713,43.951 C2.713,44.113 2.845,44.245 3.007,44.245 L19.846,44.245 C19.841,44.126 19.837,44.006 19.837,43.885 C19.837,39.876 22.877,36.564 26.772,36.135 L26.772,32.129 C26.772,31.642 27.168,31.247 27.655,31.247 C28.143,31.247 28.538,31.642 28.538,32.129 L28.538,36.140 C32.411,36.591 35.428,39.891 35.428,43.885 C35.428,48.186 31.931,51.684 27.632,51.684 C24.071,51.684 21.062,49.281 20.134,46.012 L17.724,46.012 L17.724,46.899 C17.724,47.387 17.329,47.782 16.841,47.782 C16.354,47.782 15.959,47.387 15.959,46.899 L15.959,46.012 L3.007,46.012 C1.871,46.012 0.947,45.088 0.947,43.951 L0.947,18.500 C0.947,17.949 1.161,17.432 1.550,17.043 L6.103,12.488 C6.492,12.098 7.009,11.884 7.559,11.884 L19.939,11.884 C19.953,11.680 19.972,11.477 19.997,11.275 C20.091,10.495 20.757,9.908 21.545,9.908 L23.822,9.908 C23.968,9.463 24.148,9.026 24.359,8.609 L22.750,7.000 C22.193,6.442 22.138,5.555 22.621,4.937 C23.263,4.116 24.005,3.374 24.826,2.732 C25.444,2.247 26.330,2.303 26.887,2.861 L28.496,4.471 C28.914,4.259 29.349,4.079 29.794,3.933 L29.794,1.655 C29.794,0.867 30.381,0.201 31.160,0.106 C32.190,-0.019 33.249,-0.019 34.278,0.106 C35.057,0.201 35.645,0.867 35.645,1.655 L35.645,3.933 C36.090,4.079 36.525,4.259 36.942,4.471 L38.551,2.861 C39.109,2.303 39.995,2.248 40.613,2.732 C41.433,3.374 42.175,4.116 42.817,4.937 C43.301,5.555 43.246,6.442 42.688,7.000 L41.079,8.609 C41.290,9.028 41.471,9.463 41.616,9.908 L43.893,9.908 C44.681,9.908 45.347,10.496 45.442,11.275 C45.466,11.477 45.485,11.681 45.500,11.884 L46.497,11.884 C46.985,11.884 47.380,12.280 47.380,12.768 C47.380,13.256 46.985,13.651 46.497,13.651 ZM27.632,49.918 C30.957,49.918 33.662,47.212 33.662,43.885 C33.662,40.559 30.957,37.852 27.632,37.852 C24.308,37.852 21.603,40.559 21.603,43.885 C21.603,47.212 24.308,49.918 27.632,49.918 ZM43.710,11.675 L41.466,11.675 C40.779,11.675 40.180,11.231 39.975,10.571 C39.839,10.134 39.662,9.707 39.450,9.302 C39.129,8.690 39.239,7.954 39.724,7.467 C39.724,7.467 39.724,7.467 39.724,7.467 L41.311,5.880 C40.823,5.278 40.272,4.726 39.670,4.239 L38.084,5.826 C37.599,6.311 36.862,6.422 36.250,6.101 C35.845,5.888 35.419,5.711 34.981,5.576 C34.322,5.370 33.879,4.771 33.879,4.084 L33.879,1.839 C33.110,1.757 32.328,1.757 31.559,1.839 L31.559,4.084 C31.559,4.770 31.116,5.369 30.456,5.575 C30.020,5.711 29.593,5.888 29.188,6.100 C28.576,6.421 27.839,6.311 27.354,5.826 L25.768,4.239 C25.166,4.726 24.615,5.278 24.127,5.880 L25.714,7.467 C26.199,7.952 26.309,8.690 25.988,9.302 C25.776,9.706 25.599,10.133 25.463,10.571 C25.258,11.231 24.659,11.674 23.972,11.674 L21.728,11.674 C21.688,12.058 21.667,12.448 21.667,12.834 C21.667,13.220 21.688,13.610 21.728,13.995 L23.972,13.995 C24.659,13.995 25.258,14.438 25.463,15.098 C25.599,15.535 25.776,15.962 25.988,16.367 C26.309,16.978 26.199,17.716 25.714,18.202 L24.127,19.789 C24.615,20.391 25.166,20.942 25.768,21.430 L27.354,19.843 C27.840,19.357 28.577,19.247 29.188,19.568 C29.593,19.781 30.020,19.957 30.456,20.094 C31.116,20.299 31.559,20.898 31.559,21.585 L31.559,23.831 C32.328,23.911 33.110,23.911 33.879,23.831 L33.879,21.585 C33.879,20.898 34.322,20.299 34.981,20.094 C35.418,19.957 35.845,19.781 36.250,19.568 C36.862,19.247 37.598,19.357 38.084,19.843 L39.670,21.430 C40.272,20.943 40.823,20.392 41.311,19.790 L39.724,18.202 C39.239,17.716 39.129,16.978 39.450,16.367 C39.662,15.962 39.839,15.535 39.975,15.099 C40.180,14.439 40.779,13.995 41.465,13.995 L43.710,13.995 C43.750,13.610 43.771,13.220 43.771,12.834 C43.771,12.448 43.750,12.060 43.710,11.675 ZM29.978,12.834 C29.978,11.323 31.208,10.092 32.719,10.092 C34.230,10.092 35.460,11.323 35.460,12.834 C35.460,14.346 34.230,15.576 32.719,15.576 C31.208,15.576 29.978,14.346 29.978,12.834 ZM33.694,12.834 C33.694,12.297 33.257,11.859 32.719,11.859 C32.181,11.859 31.744,12.297 31.744,12.834 C31.744,13.373 32.181,13.811 32.719,13.811 C33.257,13.811 33.694,13.373 33.694,12.834 ZM32.719,19.071 C29.282,19.071 26.485,16.273 26.485,12.834 C26.485,9.395 29.282,6.598 32.719,6.598 C33.479,6.598 34.225,6.735 34.935,7.004 C35.390,7.178 35.619,7.688 35.446,8.144 C35.272,8.600 34.762,8.829 34.307,8.655 C33.798,8.462 33.264,8.364 32.719,8.364 C30.255,8.364 28.251,10.369 28.251,12.834 C28.251,15.300 30.255,17.305 32.719,17.305 C35.183,17.305 37.187,15.300 37.187,12.834 C37.187,12.206 37.059,11.597 36.805,11.024 C36.607,10.579 36.808,10.058 37.253,9.859 C37.699,9.661 38.221,9.862 38.418,10.308 C38.773,11.108 38.953,11.958 38.953,12.834 C38.953,16.273 36.156,19.071 32.719,19.071 ZM25.132,42.529 L27.193,44.592 L30.133,41.651 C30.477,41.306 31.036,41.306 31.381,41.651 C31.726,41.996 31.726,42.555 31.381,42.900 L27.817,46.466 C27.645,46.637 27.419,46.724 27.193,46.724 C26.967,46.724 26.741,46.637 26.569,46.466 L23.884,43.778 C23.539,43.434 23.539,42.875 23.884,42.529 C24.229,42.186 24.788,42.186 25.132,42.529 ZM16.841,48.960 C17.329,48.960 17.724,49.355 17.724,49.842 L17.724,51.256 C17.724,51.743 17.329,52.139 16.841,52.139 C16.354,52.139 15.959,51.743 15.959,51.256 L15.959,49.842 C15.959,49.355 16.354,48.960 16.841,48.960 ZM16.641,53.360 C17.096,53.186 17.607,53.411 17.783,53.866 C17.868,54.087 18.043,54.269 18.261,54.362 C18.710,54.553 18.918,55.072 18.727,55.520 C18.584,55.855 18.258,56.057 17.915,56.057 C17.799,56.057 17.682,56.034 17.569,55.986 C16.915,55.707 16.392,55.167 16.136,54.503 C15.960,54.049 16.187,53.537 16.641,53.360 ZM20.838,54.431 L22.251,54.431 C22.738,54.431 23.134,54.827 23.134,55.315 C23.134,55.802 22.738,56.198 22.251,56.198 L20.838,56.198 C20.351,56.198 19.956,55.802 19.956,55.315 C19.956,54.827 20.351,54.431 20.838,54.431 ZM25.193,54.431 L26.606,54.431 C27.093,54.431 27.488,54.827 27.488,55.315 C27.488,55.802 27.093,56.198 26.606,56.198 L25.193,56.198 C24.706,56.198 24.311,55.802 24.311,55.315 C24.311,54.827 24.706,54.431 25.193,54.431 ZM29.548,54.431 L30.961,54.431 C31.448,54.431 31.843,54.827 31.843,55.315 C31.843,55.802 31.448,56.198 30.961,56.198 L29.548,56.198 C29.061,56.198 28.666,55.802 28.666,55.315 C28.666,54.827 29.061,54.431 29.548,54.431 ZM33.903,54.431 L35.315,54.431 C35.803,54.431 36.198,54.827 36.198,55.315 C36.198,55.802 35.803,56.198 35.315,56.198 L33.903,56.198 C33.415,56.198 33.020,55.802 33.020,55.315 C33.020,54.827 33.415,54.431 33.903,54.431 Z"/>
</svg>