<svg 
 xmlns="http://www.w3.org/2000/svg"
 xmlns:xlink="http://www.w3.org/1999/xlink"
 width="55px" height="60px">
<path fill-rule="evenodd"  fill="rgb(170, 181, 201)"
 d="M54.137,8.063 L51.571,5.805 L54.137,3.547 C54.537,3.195 54.673,2.647 54.486,2.150 C54.297,1.653 53.832,1.331 53.300,1.331 L42.681,1.331 L42.681,0.875 C42.681,0.389 42.287,-0.004 41.801,-0.004 C41.315,-0.004 40.921,0.389 40.921,0.875 L40.921,12.737 L33.693,16.659 C33.653,16.341 33.557,16.029 33.407,15.735 L32.388,13.748 C31.689,12.383 30.010,11.842 28.645,12.541 L27.858,12.944 C27.196,13.282 26.706,13.858 26.478,14.565 C26.250,15.271 26.311,16.024 26.650,16.685 L27.668,18.672 C27.906,19.136 28.258,19.503 28.671,19.760 C28.130,20.488 27.874,21.382 27.610,22.311 L27.420,22.983 C27.288,23.450 27.560,23.936 28.028,24.068 C28.107,24.091 28.188,24.101 28.267,24.101 C28.651,24.101 29.004,23.849 29.114,23.461 L29.304,22.792 C29.689,21.432 29.926,20.704 30.680,20.295 L32.032,19.560 L32.199,19.476 C32.255,19.447 32.306,19.416 32.359,19.384 L41.995,14.155 C41.934,15.359 41.286,16.496 40.218,17.144 L33.952,20.948 C33.945,20.952 33.937,20.956 33.931,20.961 L31.980,22.145 C31.565,22.397 31.433,22.938 31.685,23.354 C31.923,23.745 32.418,23.884 32.821,23.687 L31.341,28.158 L30.260,28.601 L27.318,29.805 L28.166,26.811 C28.298,26.344 28.026,25.858 27.558,25.725 C27.090,25.593 26.604,25.865 26.472,26.333 L25.132,31.064 C25.115,31.126 25.104,31.192 25.101,31.256 L24.750,37.690 C24.740,37.935 24.792,38.398 24.678,38.638 L20.786,46.821 L17.957,46.821 C16.300,46.821 14.952,48.167 14.952,49.824 L14.952,52.362 C14.573,52.188 14.152,52.091 13.708,52.091 L6.525,52.091 C4.868,52.091 3.520,53.438 3.520,55.093 L3.520,58.244 L1.407,58.244 C0.921,58.244 0.527,58.637 0.527,59.123 C0.527,59.609 0.921,60.002 1.407,60.002 L53.300,60.002 C53.786,60.002 54.180,59.609 54.180,59.123 C54.180,58.637 53.786,58.244 53.300,58.244 L51.011,58.244 L51.011,35.575 C51.011,33.919 49.663,32.572 48.006,32.572 L42.681,32.572 L42.681,17.230 C43.657,15.908 44.019,14.176 43.565,12.530 C43.494,12.270 43.309,12.058 43.061,11.953 C42.940,11.901 42.810,11.879 42.681,11.884 L42.681,10.278 L53.300,10.278 C53.832,10.278 54.297,9.957 54.485,9.459 C54.673,8.962 54.537,8.414 54.137,8.063 ZM28.154,15.105 C28.237,14.845 28.417,14.634 28.660,14.510 L29.447,14.106 C29.596,14.031 29.754,13.995 29.911,13.995 C30.282,13.995 30.641,14.197 30.821,14.550 L31.840,16.537 C32.078,17.001 31.924,17.564 31.501,17.848 L31.215,18.003 L30.609,18.313 C30.109,18.569 29.492,18.370 29.235,17.870 L28.216,15.883 C28.092,15.640 28.070,15.364 28.154,15.105 ZM26.385,47.091 C26.086,46.955 25.761,46.865 25.419,46.834 L26.385,45.552 L26.385,47.091 ZM30.564,40.004 C30.987,39.498 31.104,38.906 31.198,38.429 C31.222,38.316 31.657,35.945 31.657,35.945 C31.657,35.945 32.068,36.201 32.111,36.220 C32.140,36.233 32.162,36.262 32.165,36.296 L32.644,41.160 L29.694,41.160 L30.564,40.004 ZM35.769,35.151 L35.025,41.155 L34.412,41.155 L33.917,36.124 C33.853,35.479 33.459,34.916 32.880,34.637 L31.995,34.076 L32.584,30.810 C32.584,30.810 35.069,33.760 35.126,33.835 C35.640,34.503 35.816,34.770 35.769,35.151 ZM26.262,39.408 C26.440,38.872 26.522,38.328 26.508,37.774 L26.828,31.907 L30.899,30.240 L30.159,34.335 C30.157,34.346 30.154,34.358 30.153,34.369 L29.541,37.756 C29.461,38.106 29.391,38.638 29.173,38.927 L23.225,46.821 L22.735,46.821 L26.262,39.408 ZM5.280,55.092 C5.280,54.408 5.838,53.850 6.525,53.850 L13.708,53.850 C14.394,53.850 14.953,54.408 14.953,55.092 L14.953,58.244 L5.280,58.244 L5.280,55.092 ZM16.713,55.092 L16.713,49.824 C16.713,49.137 17.271,48.580 17.957,48.580 L25.141,48.580 C25.827,48.580 26.385,49.137 26.385,49.824 L26.385,58.244 L16.713,58.244 L16.713,55.092 L16.713,55.092 ZM49.250,35.575 L49.250,58.244 L39.578,58.244 L39.578,52.970 C39.578,52.484 39.184,52.091 38.698,52.091 C38.211,52.091 37.817,52.484 37.817,52.970 L37.817,58.244 L28.145,58.244 L28.145,44.162 C28.145,43.476 28.703,42.918 29.390,42.918 L36.573,42.918 C37.259,42.918 37.817,43.476 37.817,44.162 L37.817,48.571 C37.817,49.056 38.211,49.450 38.698,49.450 C39.184,49.450 39.578,49.056 39.578,48.571 L39.578,35.575 C39.578,34.888 40.136,34.332 40.822,34.332 L41.792,34.332 C41.795,34.332 41.798,34.332 41.801,34.332 C41.804,34.332 41.807,34.332 41.810,34.332 L48.005,34.332 C48.692,34.332 49.250,34.889 49.250,35.575 ZM40.822,32.572 C39.166,32.572 37.818,33.919 37.818,35.575 L37.818,41.430 C37.503,41.286 37.159,41.195 36.798,41.169 L37.516,35.367 C37.657,34.236 37.079,33.487 36.521,32.762 C36.462,32.685 33.041,28.626 33.041,28.626 L35.140,22.286 L40.921,18.776 L40.921,32.572 L40.822,32.572 ZM42.681,8.519 L42.681,3.091 L51.992,3.091 L49.987,4.855 C49.714,5.096 49.557,5.442 49.557,5.805 C49.557,6.169 49.714,6.515 49.987,6.755 L51.992,8.519 L42.681,8.519 L42.681,8.519 Z"/>
</svg>