<svg 
 xmlns="http://www.w3.org/2000/svg"
 xmlns:xlink="http://www.w3.org/1999/xlink"
 width="62px" height="61px">
<path fill-rule="evenodd"  fill="rgb(170, 181, 201)"
 d="M60.646,60.503 L57.020,60.503 C56.525,60.503 56.125,60.102 56.125,59.607 C56.125,59.112 56.525,58.710 57.020,58.710 L60.646,58.710 C61.140,58.710 61.541,59.112 61.541,59.607 C61.541,60.102 61.140,60.503 60.646,60.503 ZM60.314,57.558 L58.137,57.558 C57.876,57.558 57.628,57.443 57.458,57.245 L51.870,50.734 C51.620,50.442 51.432,50.108 51.313,49.753 C51.290,49.824 51.274,49.897 51.268,49.972 L50.737,56.731 C50.701,57.198 50.312,57.558 49.845,57.558 L47.792,57.558 C47.333,57.558 46.949,57.210 46.901,56.754 L46.024,48.292 C45.955,47.616 46.134,46.944 46.528,46.396 L51.555,39.399 L51.656,32.919 L47.455,30.365 C47.220,30.675 46.857,30.885 46.442,30.910 L44.654,31.019 C44.628,31.083 44.601,31.146 44.574,31.208 L45.728,32.555 C46.194,33.101 46.162,33.924 45.656,34.431 L44.078,36.012 C43.559,36.527 42.730,36.551 42.186,36.069 L40.846,34.882 C40.817,34.894 40.789,34.905 40.760,34.917 L40.651,36.707 C40.606,37.434 40.001,38.004 39.273,38.004 L37.040,38.004 C36.321,38.004 35.716,37.442 35.664,36.724 L35.530,34.958 C35.466,34.934 35.402,34.908 35.339,34.882 L33.999,36.069 C33.455,36.551 32.626,36.527 32.110,36.014 L30.529,34.430 C30.024,33.924 29.991,33.101 30.457,32.556 L31.612,31.208 C31.584,31.146 31.558,31.083 31.532,31.019 L29.744,30.910 C29.018,30.866 28.449,30.260 28.449,29.532 L28.449,29.040 L27.154,27.893 C26.694,28.125 26.219,28.321 25.733,28.484 L25.624,30.272 C25.573,31.113 24.874,31.772 24.033,31.772 L22.535,31.772 C22.173,33.536 20.720,34.929 18.873,35.155 L14.302,35.719 C13.859,35.774 13.419,35.689 13.029,35.471 L11.216,34.462 L11.167,38.097 L17.272,44.453 C18.122,45.317 18.293,46.645 17.693,47.702 L13.926,56.876 C13.788,57.211 13.460,57.430 13.097,57.430 L10.910,57.430 C10.638,57.430 10.381,57.308 10.210,57.094 C10.041,56.882 9.977,56.603 10.036,56.338 L11.869,48.176 L10.359,46.570 C10.020,46.210 10.037,45.642 10.397,45.303 C10.757,44.965 11.324,44.981 11.663,45.342 L13.313,47.096 C13.339,47.124 13.364,47.154 13.386,47.185 C13.688,47.603 13.768,48.133 13.604,48.618 L12.028,55.639 L12.498,55.639 L16.060,46.963 C16.078,46.920 16.099,46.878 16.122,46.839 C16.343,46.474 16.288,46.007 15.989,45.704 L10.636,40.130 L4.882,56.827 C4.758,57.188 4.417,57.430 4.036,57.430 L1.718,57.430 C1.461,57.430 1.216,57.319 1.046,57.126 C0.876,56.933 0.797,56.675 0.830,56.419 L3.141,38.476 L3.200,31.402 C3.209,30.254 3.632,29.147 4.391,28.285 L4.806,27.814 C4.914,27.691 5.032,27.581 5.154,27.478 C4.768,26.948 4.588,26.306 4.650,25.648 L4.847,23.560 C4.914,22.847 5.255,22.204 5.806,21.747 C6.357,21.291 7.053,21.076 7.765,21.143 L8.591,21.222 C9.303,21.290 9.946,21.631 10.402,22.181 C10.858,22.734 11.072,23.429 11.005,24.142 L10.808,26.231 C10.746,26.890 10.447,27.470 10.005,27.899 L14.419,30.730 C14.475,30.763 14.541,30.777 14.605,30.771 L19.221,30.278 L19.088,28.536 C18.545,28.365 18.016,28.151 17.505,27.894 L16.163,29.082 C15.533,29.641 14.574,29.611 13.979,29.016 L11.702,26.737 C11.116,26.151 11.080,25.198 11.620,24.568 L12.768,23.228 C12.505,22.722 12.282,22.195 12.102,21.653 L10.315,21.545 C9.476,21.493 8.818,20.794 8.818,19.951 L8.818,16.728 C8.818,15.898 9.464,15.199 10.290,15.136 L12.050,15.002 C12.221,14.458 12.436,13.929 12.693,13.418 L11.505,12.074 C10.947,11.444 10.976,10.484 11.571,9.888 L13.848,7.609 C14.434,7.023 15.385,6.986 16.014,7.526 L17.353,8.676 C17.909,8.386 18.489,8.145 19.088,7.957 L19.222,6.196 C19.285,5.369 19.984,4.721 20.812,4.721 L24.032,4.721 C24.874,4.721 25.573,5.380 25.624,6.221 L25.733,8.009 C26.274,8.190 26.801,8.412 27.306,8.676 L28.646,7.526 C29.274,6.986 30.225,7.023 30.811,7.609 L33.088,9.889 C33.683,10.484 33.712,11.445 33.154,12.074 L31.967,13.418 C32.223,13.930 32.438,14.459 32.610,15.003 L34.369,15.136 C35.195,15.200 35.841,15.899 35.841,16.729 L35.841,19.397 C36.080,18.979 36.531,18.696 37.040,18.696 L39.273,18.696 C40.001,18.696 40.606,19.266 40.651,19.993 L40.760,21.784 C40.823,21.809 40.886,21.835 40.948,21.863 L42.293,20.708 C42.837,20.240 43.661,20.270 44.169,20.779 L45.747,22.360 C46.115,22.725 46.232,23.253 46.094,23.725 L53.175,27.575 C53.219,27.303 53.305,27.037 53.434,26.784 L54.389,24.918 C55.062,23.602 56.679,23.081 57.993,23.754 L58.731,24.133 C59.368,24.458 59.839,25.014 60.059,25.695 C60.279,26.377 60.220,27.103 59.894,27.740 L58.939,29.607 C58.735,30.005 58.442,30.339 58.085,30.586 C58.687,31.316 59.033,32.241 59.033,33.219 L59.033,36.725 C59.033,37.221 58.632,37.622 58.137,37.622 C57.643,37.622 57.242,37.221 57.242,36.725 L57.242,33.219 C57.242,32.360 56.773,31.572 56.019,31.161 L54.748,30.470 L54.597,30.393 C54.546,30.366 54.499,30.337 54.450,30.308 L45.524,25.455 C45.617,26.517 46.204,27.506 47.147,28.080 L52.994,31.637 C53.002,31.641 53.009,31.645 53.016,31.649 L54.870,32.778 C55.293,33.034 55.427,33.586 55.170,34.009 C54.913,34.431 54.363,34.566 53.940,34.309 L53.430,33.999 L53.351,39.098 L57.242,40.694 L57.242,40.325 C57.242,39.830 57.643,39.428 58.137,39.428 C58.632,39.428 59.033,39.830 59.033,40.325 L59.033,42.012 C59.033,42.031 59.032,42.050 59.031,42.070 C59.031,42.076 59.031,42.083 59.031,42.089 C59.029,42.105 59.028,42.120 59.026,42.135 C59.026,42.140 59.025,42.145 59.024,42.149 C59.024,42.151 59.024,42.151 59.024,42.152 C59.023,42.158 59.022,42.165 59.021,42.171 C59.018,42.192 59.014,42.212 59.009,42.234 C59.008,42.236 59.007,42.241 59.007,42.245 L59.006,42.248 C59.006,42.249 59.005,42.249 59.005,42.250 L57.399,48.741 C57.351,48.936 57.376,49.141 57.469,49.320 L61.107,56.245 C61.253,56.522 61.243,56.856 61.081,57.124 C60.919,57.394 60.628,57.558 60.314,57.558 ZM47.981,47.443 C47.843,47.634 47.781,47.870 47.805,48.108 L48.599,55.766 L49.017,55.766 L49.483,49.830 C49.540,49.133 49.851,48.492 50.360,48.022 L51.223,47.222 L51.421,42.655 L47.981,47.443 ZM54.973,28.279 C55.034,28.470 55.156,28.630 55.319,28.741 L55.586,28.886 L56.151,29.175 C56.362,29.284 56.602,29.302 56.828,29.230 C57.054,29.157 57.237,29.001 57.345,28.789 L58.300,26.922 C58.408,26.711 58.427,26.471 58.355,26.246 C58.282,26.020 58.126,25.836 57.915,25.728 L57.177,25.350 C56.741,25.127 56.206,25.300 55.983,25.735 L55.028,27.601 C54.920,27.812 54.900,28.054 54.973,28.279 ZM2.736,55.638 L3.398,55.638 L9.005,39.367 L4.825,39.423 L2.736,55.638 ZM9.023,23.324 C8.872,23.142 8.658,23.029 8.422,23.007 L7.597,22.928 C7.568,22.925 7.540,22.924 7.512,22.924 C7.306,22.924 7.108,22.995 6.947,23.128 C6.765,23.279 6.653,23.493 6.630,23.729 L6.433,25.817 C6.395,26.219 6.633,26.586 6.992,26.727 C7.389,26.698 7.793,26.742 8.182,26.865 C8.617,26.846 8.983,26.508 9.025,26.062 L9.223,23.973 C9.245,23.738 9.174,23.507 9.023,23.324 ZM14.796,32.553 C14.336,32.602 13.866,32.495 13.474,32.253 C13.469,32.250 13.466,32.247 13.461,32.244 L7.999,28.741 C7.939,28.702 7.877,28.668 7.814,28.640 L7.065,28.569 C7.013,28.564 6.962,28.555 6.911,28.546 C6.625,28.611 6.357,28.764 6.149,29.000 L5.734,29.470 C5.261,30.009 4.996,30.700 4.991,31.417 L4.939,37.628 L9.384,37.569 L9.438,33.473 L7.780,32.550 C7.348,32.310 7.192,31.763 7.432,31.331 C7.673,30.898 8.217,30.742 8.650,30.984 L10.760,32.157 C10.770,32.163 10.780,32.168 10.790,32.174 L13.900,33.905 C13.956,33.936 14.019,33.948 14.083,33.940 L18.655,33.378 C19.537,33.269 20.266,32.702 20.613,31.933 L14.796,32.553 ZM34.051,16.910 L31.850,16.742 C31.465,16.712 31.143,16.440 31.049,16.064 C30.848,15.254 30.531,14.472 30.108,13.742 C29.914,13.407 29.956,12.987 30.212,12.698 L31.692,11.025 L29.674,9.006 L27.998,10.445 C27.705,10.697 27.284,10.731 26.954,10.532 C26.234,10.099 25.459,9.770 24.647,9.554 C24.274,9.455 24.006,9.128 23.983,8.742 L23.848,6.514 L20.994,6.514 L20.826,8.717 C20.796,9.103 20.524,9.426 20.150,9.519 C19.288,9.734 18.466,10.075 17.706,10.532 C17.375,10.731 16.954,10.697 16.662,10.444 L14.986,9.005 L12.968,11.025 L14.448,12.698 C14.704,12.987 14.745,13.407 14.552,13.742 C14.129,14.471 13.812,15.254 13.610,16.064 C13.517,16.439 13.194,16.712 12.809,16.741 L10.609,16.910 L10.609,19.766 L12.835,19.902 C13.220,19.925 13.546,20.193 13.645,20.566 C13.861,21.378 14.190,22.156 14.623,22.875 C14.821,23.206 14.786,23.627 14.535,23.920 L13.097,25.598 L15.115,27.617 L16.786,26.137 C17.075,25.880 17.495,25.838 17.829,26.033 C18.558,26.455 19.339,26.773 20.150,26.975 C20.524,27.068 20.796,27.391 20.826,27.777 L20.994,29.979 L23.848,29.979 L23.983,27.751 C24.006,27.366 24.274,27.038 24.647,26.939 C25.408,26.737 26.142,26.432 26.830,26.033 C27.164,25.838 27.584,25.880 27.873,26.137 L29.545,27.617 L31.562,25.598 L30.125,23.920 C29.874,23.627 29.838,23.206 30.037,22.875 C30.470,22.156 30.798,21.378 31.014,20.566 C31.114,20.193 31.440,19.925 31.825,19.902 L34.051,19.766 L34.051,16.910 ZM34.766,21.459 L35.236,21.863 C35.333,21.821 35.431,21.780 35.530,21.742 L35.602,20.790 C35.411,21.099 35.117,21.338 34.766,21.459 ZM44.305,27.552 L43.968,27.528 C43.596,27.498 43.281,27.242 43.176,26.883 C43.073,26.525 42.935,26.183 42.765,25.866 C42.589,25.535 42.636,25.130 42.885,24.849 L43.969,23.624 C44.024,23.514 44.101,23.417 44.193,23.340 L43.171,22.315 L41.665,23.609 C41.381,23.853 40.976,23.895 40.648,23.713 C40.329,23.537 39.990,23.392 39.639,23.285 C39.282,23.175 39.031,22.855 39.008,22.482 L38.887,20.488 L37.421,20.488 L37.270,22.469 C37.241,22.842 36.984,23.158 36.625,23.262 C36.242,23.373 35.875,23.525 35.537,23.712 C35.209,23.896 34.803,23.853 34.519,23.609 L33.014,22.315 L31.988,23.343 L32.613,24.071 L32.628,24.088 C32.633,24.094 32.638,24.099 32.642,24.105 L32.649,24.112 L33.301,24.849 C33.547,25.128 33.596,25.532 33.422,25.861 C33.411,25.883 30.680,29.016 30.680,29.016 C30.626,29.070 30.568,29.117 30.509,29.162 L32.230,29.267 C32.603,29.290 32.922,29.541 33.032,29.898 C33.139,30.249 33.283,30.589 33.460,30.907 C33.641,31.236 33.600,31.642 33.356,31.926 L32.064,33.432 L33.101,34.471 L34.595,33.147 C34.875,32.899 35.281,32.851 35.611,33.027 C35.928,33.197 36.269,33.335 36.624,33.437 C36.984,33.541 37.241,33.857 37.270,34.230 L37.421,36.211 L38.887,36.211 L39.008,34.218 C39.031,33.845 39.283,33.525 39.639,33.416 C39.965,33.316 40.280,33.185 40.574,33.027 C40.904,32.851 41.310,32.899 41.590,33.147 L43.084,34.471 L44.121,33.432 L42.829,31.926 C42.586,31.642 42.544,31.236 42.726,30.907 C42.902,30.589 43.046,30.249 43.154,29.898 C43.263,29.541 43.583,29.290 43.955,29.267 L45.596,29.167 C45.056,28.717 44.620,28.164 44.305,27.552 ZM55.884,50.153 C55.586,49.587 55.507,48.932 55.661,48.310 L57.082,42.566 L53.285,41.008 L52.949,48.758 C52.936,49.054 53.035,49.340 53.228,49.566 L58.548,55.766 L58.832,55.766 L55.884,50.153 ZM38.093,31.814 C36.184,31.814 34.632,30.260 34.632,28.350 C34.632,26.440 36.184,24.886 38.093,24.886 C40.001,24.886 41.553,26.440 41.553,28.350 C41.553,30.260 40.001,31.814 38.093,31.814 ZM38.093,26.678 C37.172,26.678 36.422,27.429 36.422,28.350 C36.422,29.272 37.172,30.021 38.093,30.021 C39.013,30.021 39.762,29.272 39.762,28.350 C39.762,27.429 39.013,26.678 38.093,26.678 ZM22.330,24.793 C18.723,24.793 15.789,21.857 15.789,18.247 C15.789,14.637 18.723,11.700 22.330,11.700 C23.805,11.700 25.251,12.205 26.402,13.123 C26.789,13.432 26.853,13.996 26.545,14.383 C26.237,14.770 25.673,14.833 25.287,14.526 C24.439,13.850 23.416,13.492 22.330,13.492 C19.710,13.492 17.580,15.625 17.580,18.247 C17.580,20.868 19.710,23.002 22.330,23.002 C24.949,23.002 27.080,20.868 27.080,18.247 C27.080,17.917 27.046,17.588 26.979,17.268 C26.878,16.784 27.188,16.309 27.672,16.208 C28.156,16.107 28.631,16.418 28.732,16.901 C28.824,17.341 28.870,17.794 28.870,18.247 C28.870,21.857 25.936,24.793 22.330,24.793 ZM50.595,21.822 C50.458,22.390 49.891,22.606 49.443,22.465 L46.663,21.791 C46.183,21.673 45.888,21.189 46.004,20.708 C46.121,20.227 46.604,19.932 47.085,20.049 L47.753,20.210 C45.798,17.754 42.830,16.292 39.605,16.292 C39.110,16.292 38.709,15.891 38.709,15.395 C38.709,14.901 39.110,14.500 39.605,14.500 C43.496,14.500 47.067,16.314 49.352,19.349 L49.494,18.760 C49.611,18.279 50.094,17.983 50.575,18.100 C51.056,18.217 51.351,18.701 51.234,19.182 L50.595,21.822 ZM20.935,2.288 C15.406,2.288 10.407,5.211 7.674,9.885 L8.550,9.566 C9.014,9.396 9.528,9.635 9.698,10.100 C9.868,10.565 9.628,11.079 9.164,11.249 L6.213,12.328 C5.724,12.507 5.072,12.135 4.998,11.611 L3.987,8.840 C3.818,8.376 4.057,7.861 4.521,7.691 C4.985,7.522 5.500,7.760 5.669,8.225 L6.016,9.177 C9.041,3.842 14.685,0.494 20.935,0.494 C21.430,0.494 21.831,0.896 21.831,1.391 C21.831,1.886 21.430,2.288 20.935,2.288 ZM4.980,58.710 C5.474,58.710 5.875,59.112 5.875,59.607 C5.875,60.102 5.474,60.503 4.980,60.503 L1.354,60.503 C0.860,60.503 0.459,60.102 0.459,59.607 C0.459,59.112 0.860,58.710 1.354,58.710 L4.980,58.710 ZM10.581,58.710 L14.206,58.710 C14.701,58.710 15.101,59.112 15.101,59.607 C15.101,60.102 14.701,60.503 14.206,60.503 L10.581,60.503 C10.087,60.503 9.685,60.102 9.685,59.607 C9.685,59.112 10.087,58.710 10.581,58.710 ZM46.355,58.710 L49.980,58.710 C50.475,58.710 50.876,59.112 50.876,59.607 C50.876,60.102 50.475,60.503 49.980,60.503 L46.355,60.503 C45.860,60.503 45.459,60.102 45.459,59.607 C45.459,59.112 45.860,58.710 46.355,58.710 Z"/>
</svg>