<svg 
 xmlns="http://www.w3.org/2000/svg"
 xmlns:xlink="http://www.w3.org/1999/xlink"
 width="56px" height="56px">
<path fill-rule="evenodd"  fill="rgb(153, 161, 175)"
 d="M43.423,55.487 L21.407,55.487 L21.407,53.653 L43.423,53.653 C48.993,53.647 53.507,49.136 53.514,43.570 L53.514,18.119 L45.621,2.344 C45.197,2.386 44.779,2.474 44.375,2.609 C41.392,3.603 39.779,6.825 40.773,9.807 L41.760,12.767 L42.125,12.402 C42.843,11.687 44.003,11.687 44.721,12.402 L47.092,14.772 C47.093,14.772 47.093,14.773 47.093,14.773 C47.809,15.489 47.809,16.651 47.092,17.365 L44.365,20.091 C46.750,23.474 48.023,27.514 48.010,31.652 C48.010,42.772 38.956,51.820 27.828,51.820 C25.626,51.822 23.437,51.464 21.351,50.757 C20.964,53.467 18.643,55.483 15.903,55.487 L10.398,55.487 C8.873,55.488 7.415,54.855 6.374,53.741 C4.301,51.522 4.420,48.044 6.641,45.972 C5.935,45.710 5.291,45.306 4.748,44.784 C2.558,42.681 2.490,39.203 4.594,37.015 C3.211,36.702 2.003,35.868 1.221,34.686 C-0.455,32.155 0.240,28.744 2.774,27.068 C0.903,25.831 -0.029,23.584 0.418,21.387 L2.216,21.751 C2.167,21.990 2.142,22.233 2.142,22.478 C2.140,24.505 3.783,26.150 5.812,26.152 L11.316,26.152 C13.342,26.152 14.985,24.510 14.985,22.486 C14.985,20.460 13.342,18.819 11.316,18.819 L5.812,18.819 C4.656,18.814 3.566,19.359 2.876,20.285 L1.408,19.184 C2.444,17.794 4.078,16.978 5.812,16.986 L8.274,16.986 C7.856,16.268 7.975,15.358 8.564,14.772 L10.935,12.402 C11.653,11.687 12.813,11.687 13.531,12.402 L16.259,15.129 C18.520,13.543 21.084,12.441 23.791,11.891 C23.440,11.608 23.120,11.288 22.836,10.938 C20.605,8.183 21.032,4.143 23.788,1.913 C26.545,-0.317 30.589,0.109 32.820,2.865 C35.051,5.619 34.625,9.659 31.868,11.889 C34.045,12.328 36.132,13.129 38.045,14.257 C38.055,14.262 38.065,14.268 38.076,14.274 C38.205,14.349 39.277,15.178 39.398,15.127 L40.309,14.217 L39.032,10.387 C38.776,9.620 38.646,8.816 38.646,8.007 C38.646,3.852 42.017,0.485 46.175,0.485 C46.522,0.485 46.840,0.682 46.995,0.992 L55.252,17.492 C55.315,17.620 55.349,17.760 55.349,17.902 L55.349,43.570 C55.341,50.148 50.006,55.479 43.423,55.487 ZM12.233,13.699 L9.861,16.068 L10.778,16.986 L11.316,16.986 C12.071,16.985 12.817,17.141 13.509,17.442 C13.921,17.028 14.349,16.633 14.794,16.258 L12.233,13.699 ZM45.795,16.068 L43.423,13.699 L40.862,16.258 C41.716,16.981 42.509,17.774 43.233,18.629 L45.795,16.068 ZM10.398,53.653 L15.903,53.653 C17.929,53.653 19.572,52.012 19.572,49.986 C19.572,47.961 17.929,46.319 15.903,46.319 L10.398,46.319 C8.372,46.319 6.729,47.961 6.729,49.986 C6.729,52.012 8.372,53.653 10.398,53.653 ZM8.564,44.486 L14.068,44.486 C16.094,44.486 17.737,42.844 17.737,40.820 C17.737,38.794 16.094,37.152 14.068,37.152 L8.564,37.152 C6.537,37.152 4.894,38.794 4.894,40.820 C4.894,42.844 6.537,44.486 8.564,44.486 ZM11.316,27.986 L5.812,27.986 C3.786,27.989 2.145,29.628 2.142,31.652 C2.145,33.677 3.786,35.317 5.812,35.319 L11.316,35.319 C13.342,35.319 14.985,33.678 14.985,31.652 C14.985,29.626 13.342,27.986 11.316,27.986 ZM32.415,6.902 C32.415,4.370 30.361,2.318 27.828,2.318 C26.384,2.318 25.025,2.998 24.159,4.152 C22.639,6.177 23.049,9.050 25.076,10.569 L25.076,9.652 C24.569,9.652 24.159,9.242 24.159,8.735 L24.159,5.068 C24.159,4.562 24.569,4.152 25.076,4.152 L30.580,4.152 C31.087,4.152 31.498,4.562 31.498,5.068 L31.498,8.735 C31.498,9.242 31.087,9.652 30.580,9.652 L30.580,10.569 C31.735,9.703 32.415,8.345 32.415,6.902 ZM29.663,7.819 L29.663,5.985 L25.993,5.985 L25.993,7.819 L29.663,7.819 ZM26.911,9.652 L26.911,11.507 C27.518,11.480 28.136,11.480 28.745,11.507 L28.745,9.652 L26.911,9.652 ZM29.577,13.402 C24.234,12.891 18.934,14.744 15.076,18.474 C15.392,18.769 15.672,19.100 15.910,19.460 C17.583,21.991 16.886,25.397 14.354,27.068 C15.622,27.909 16.487,29.237 16.742,30.736 L18.655,30.736 L18.655,32.569 L16.742,32.569 C16.557,33.656 16.050,34.662 15.285,35.457 C16.104,35.642 16.868,36.013 17.521,36.541 L19.425,35.442 L20.343,37.030 L18.758,37.944 C20.128,40.170 19.738,43.051 17.825,44.832 C19.566,45.485 20.860,46.969 21.272,48.781 C23.364,49.581 25.587,49.990 27.828,49.986 C37.945,49.986 46.175,41.762 46.175,31.652 C46.175,22.353 38.757,14.289 29.577,13.402 ZM26.911,18.819 L28.745,18.819 L28.745,22.486 L26.911,22.486 L26.911,18.819 ZM33.454,20.081 L35.043,20.997 L33.209,24.173 L31.620,23.256 L33.454,20.081 ZM40.671,30.736 L40.671,32.569 L37.002,32.569 L37.002,30.736 L40.671,30.736 ZM35.313,37.031 L36.230,35.443 L39.408,37.276 L38.491,38.864 L35.313,37.031 ZM33.454,43.224 L31.620,40.049 L33.208,39.132 L35.043,42.307 L33.454,43.224 ZM28.745,44.486 L26.911,44.486 L26.911,40.820 L28.745,40.820 L28.745,44.486 ZM25.076,31.652 C25.076,31.000 25.307,30.369 25.729,29.872 C26.712,28.716 28.447,28.574 29.605,29.556 L38.374,24.444 L39.298,26.027 L30.531,31.138 C30.564,31.309 30.580,31.483 30.580,31.657 C30.579,33.175 29.346,34.406 27.826,34.405 C26.306,34.403 25.075,33.171 25.076,31.652 ZM27.828,32.569 C28.335,32.569 28.745,32.159 28.745,31.652 C28.745,31.146 28.335,30.736 27.828,30.736 C27.322,30.737 26.911,31.146 26.911,31.652 C26.911,32.159 27.321,32.569 27.828,32.569 ZM27.828,48.153 C25.483,48.158 23.164,47.661 21.028,46.693 L21.785,45.023 C26.946,47.349 32.986,46.500 37.305,42.843 C43.488,37.607 44.253,28.354 39.013,22.175 C33.773,15.997 24.514,15.233 18.331,20.469 L17.143,19.072 C20.128,16.541 23.914,15.153 27.828,15.152 C36.933,15.152 44.340,22.554 44.340,31.652 C44.340,40.751 36.933,48.153 27.828,48.153 ZM20.341,26.275 L19.424,27.863 L16.246,26.030 L17.164,24.443 L20.341,26.275 ZM22.200,20.079 L24.035,23.255 L22.446,24.171 L20.612,20.996 L22.200,20.079 ZM20.611,42.309 L22.446,39.133 L24.035,40.050 L22.200,43.226 L20.611,42.309 Z"/>
</svg>