<svg 
 xmlns="http://www.w3.org/2000/svg"
 xmlns:xlink="http://www.w3.org/1999/xlink"
 width="30px" height="23px">
<path fill-rule="evenodd"  fill="rgb(255, 255, 255)"
 d="M1.500,-0.000 L23.500,-0.000 C24.328,-0.000 25.000,0.671 25.000,1.500 C25.000,2.328 24.328,2.999 23.500,2.999 L1.500,2.999 C0.672,2.999 -0.000,2.328 -0.000,1.500 C-0.000,0.671 0.672,-0.000 1.500,-0.000 Z"/>
<path fill-rule="evenodd"  fill="rgb(255, 255, 255)"
 d="M1.500,10.000 L28.500,10.000 C29.328,10.000 30.000,10.671 30.000,11.500 C30.000,12.328 29.328,12.999 28.500,12.999 L1.500,12.999 C0.672,12.999 -0.000,12.328 -0.000,11.500 C-0.000,10.671 0.672,10.000 1.500,10.000 Z"/>
<path fill-rule="evenodd"  fill="rgb(255, 255, 255)"
 d="M1.500,20.000 L18.500,20.000 C19.328,20.000 20.000,20.671 20.000,21.500 C20.000,22.328 19.328,22.999 18.500,22.999 L1.500,22.999 C0.672,22.999 -0.000,22.328 -0.000,21.500 C-0.000,20.671 0.672,20.000 1.500,20.000 Z"/>
</svg>