<svg 
 xmlns="http://www.w3.org/2000/svg"
 xmlns:xlink="http://www.w3.org/1999/xlink"
 width="21px" height="21px">
<path fill-rule="evenodd"  fill="rgb(255, 255, 255)"
 d="M5.033,17.294 L3.471,17.294 L3.471,15.732 L5.033,15.732 L5.033,17.294 ZM3.471,9.484 L5.033,9.484 L5.033,11.045 L3.471,11.045 L3.471,9.484 ZM5.033,14.169 L3.471,14.169 L3.471,12.608 L5.033,12.608 L5.033,14.169 ZM8.157,17.294 L6.595,17.294 L6.595,15.732 L8.157,15.732 L8.157,17.294 ZM6.595,9.484 L8.157,9.484 L8.157,11.045 L6.595,11.045 L6.595,9.484 ZM8.157,14.169 L6.595,14.169 L6.595,12.608 L8.157,12.608 L8.157,14.169 ZM18.935,9.488 L18.935,9.484 L18.935,9.406 L18.935,7.844 L2.065,7.844 L2.065,18.153 C2.065,18.584 2.415,18.934 2.846,18.934 L8.040,18.934 L8.157,18.934 L9.488,18.934 C9.871,19.523 10.341,20.050 10.881,20.496 L8.157,20.496 L8.040,20.496 L2.846,20.496 C1.554,20.496 0.503,19.445 0.503,18.153 L0.503,4.407 C0.503,3.115 1.554,2.063 2.846,2.063 L3.783,2.063 L3.783,0.502 L5.345,0.502 L5.345,2.063 L15.655,2.063 L15.655,0.502 L17.217,0.502 L17.217,2.063 L18.154,2.063 C19.446,2.063 20.497,3.115 20.497,4.407 L20.497,9.406 L20.497,9.484 L20.497,10.881 C20.051,10.340 19.524,9.870 18.935,9.488 ZM18.935,4.407 C18.935,3.977 18.584,3.626 18.154,3.626 L17.217,3.626 L17.217,5.188 L15.655,5.188 L15.655,3.626 L5.345,3.626 L5.345,5.188 L3.783,5.188 L3.783,3.626 L2.846,3.626 C2.415,3.626 2.065,3.977 2.065,4.407 L2.065,6.281 L18.935,6.281 L18.935,4.407 ZM9.719,9.484 L11.281,9.484 L11.281,11.045 L9.719,11.045 L9.719,9.484 ZM15.225,9.952 C18.132,9.952 20.497,12.318 20.497,15.224 C20.497,18.131 18.132,20.496 15.225,20.496 C12.318,20.496 9.953,18.131 9.953,15.224 C9.953,12.318 12.318,9.952 15.225,9.952 ZM15.225,18.934 C17.271,18.934 18.935,17.269 18.935,15.224 C18.935,13.178 17.271,11.514 15.225,11.514 C13.179,11.514 11.515,13.178 11.515,15.224 C11.515,17.269 13.179,18.934 15.225,18.934 ZM15.967,14.443 L17.295,14.443 L17.295,16.005 L14.405,16.005 L14.405,12.608 L15.967,12.608 L15.967,14.443 Z"/>
</svg>