<svg 
 xmlns="http://www.w3.org/2000/svg"
 xmlns:xlink="http://www.w3.org/1999/xlink"
 width="35px" height="27px">
<path fill-rule="evenodd"  fill="rgb(255, 255, 255)"
 d="M33.229,26.884 L1.771,26.884 C0.806,26.884 0.023,26.102 0.023,25.138 L0.023,1.860 C0.023,0.896 0.806,0.114 1.771,0.114 L33.229,0.114 C34.194,0.114 34.977,0.896 34.977,1.860 L34.977,25.138 C34.977,26.102 34.194,26.884 33.229,26.884 ZM33.812,1.860 C33.812,1.539 33.551,1.278 33.229,1.278 L1.771,1.278 C1.449,1.278 1.188,1.539 1.188,1.860 L1.188,25.138 C1.188,25.460 1.449,25.720 1.771,25.720 L33.229,25.720 C33.551,25.720 33.812,25.460 33.812,25.138 L33.812,1.860 ZM18.999,14.747 C18.133,15.476 16.867,15.476 16.001,14.747 L2.561,3.469 C2.402,3.336 2.326,3.128 2.362,2.922 C2.398,2.718 2.541,2.548 2.737,2.476 C2.932,2.406 3.151,2.444 3.310,2.578 L16.750,13.856 C17.184,14.221 17.816,14.221 18.250,13.856 L31.689,2.578 C31.808,2.479 31.961,2.430 32.115,2.444 C32.269,2.457 32.411,2.532 32.510,2.650 C32.609,2.768 32.658,2.920 32.644,3.074 C32.631,3.228 32.557,3.370 32.439,3.469 L18.999,14.747 ZM10.666,14.848 C10.807,14.690 11.021,14.621 11.228,14.667 C11.434,14.713 11.599,14.868 11.659,15.070 C11.719,15.271 11.665,15.491 11.518,15.642 L3.362,24.371 C3.221,24.528 3.006,24.597 2.800,24.552 C2.594,24.505 2.429,24.353 2.368,24.150 C2.308,23.947 2.362,23.729 2.510,23.578 L10.666,14.848 ZM23.772,14.667 C23.978,14.621 24.193,14.690 24.334,14.848 L32.490,23.577 C32.701,23.814 32.684,24.174 32.452,24.390 C32.221,24.606 31.859,24.597 31.638,24.371 L23.482,15.642 C23.335,15.491 23.280,15.271 23.341,15.070 C23.401,14.868 23.566,14.713 23.772,14.667 Z"/>
</svg>