<svg 
 xmlns="http://www.w3.org/2000/svg"
 xmlns:xlink="http://www.w3.org/1999/xlink"
 width="21px" height="20px">
<path fill-rule="evenodd"  fill="rgb(255, 255, 255)"
 d="M19.018,5.054 L19.018,1.255 L17.752,1.255 L17.752,-0.011 L20.284,-0.011 L20.284,5.054 L19.018,5.054 ZM19.398,8.045 C19.391,8.266 19.478,8.478 19.638,8.629 C19.673,8.662 19.707,8.695 19.739,8.731 C20.505,9.552 20.460,10.839 19.638,11.605 C19.476,11.757 19.388,11.971 19.395,12.192 C19.414,12.756 19.198,13.301 18.801,13.700 C18.676,13.821 18.537,13.924 18.385,14.009 L18.385,20.008 L15.220,18.426 L12.055,20.008 L12.055,14.010 C11.903,13.926 11.763,13.822 11.639,13.701 C11.241,13.303 11.026,12.758 11.044,12.194 C11.052,11.973 10.963,11.759 10.801,11.608 C10.767,11.575 10.733,11.541 10.701,11.507 C9.935,10.685 9.980,9.399 10.801,8.632 C10.963,8.480 11.052,8.266 11.044,8.045 C11.043,7.999 11.043,7.953 11.044,7.908 C11.082,6.785 12.024,5.905 13.147,5.942 C13.369,5.955 13.585,5.865 13.733,5.699 C13.765,5.665 13.798,5.632 13.832,5.600 C14.654,4.833 15.942,4.877 16.709,5.699 C16.861,5.861 17.075,5.949 17.296,5.942 C17.858,5.928 18.403,6.143 18.803,6.538 C19.201,6.936 19.416,7.483 19.398,8.045 ZM13.321,17.958 L15.220,17.009 L17.119,17.958 L17.119,14.326 C16.963,14.352 16.819,14.425 16.709,14.538 C16.677,14.572 16.644,14.606 16.610,14.637 C15.788,15.404 14.500,15.361 13.733,14.538 C13.623,14.421 13.479,14.341 13.321,14.311 L13.321,17.958 ZM18.132,8.003 C18.132,7.984 18.132,7.965 18.132,7.947 C18.117,7.524 17.761,7.191 17.337,7.207 C16.750,7.221 16.185,6.987 15.780,6.562 C15.776,6.559 15.773,6.555 15.769,6.551 C15.459,6.248 14.961,6.253 14.657,6.562 C14.252,6.986 13.688,7.220 13.102,7.207 C12.889,7.197 12.682,7.279 12.533,7.432 C12.381,7.582 12.299,7.789 12.308,8.001 C12.328,8.588 12.093,9.156 11.664,9.557 C11.651,9.569 11.639,9.581 11.627,9.594 C11.338,9.904 11.354,10.391 11.664,10.680 C12.093,11.081 12.328,11.649 12.308,12.235 C12.307,12.254 12.307,12.272 12.308,12.289 C12.324,12.714 12.680,13.045 13.104,13.029 L13.173,13.029 C13.737,13.029 14.275,13.263 14.660,13.675 C14.663,13.678 14.667,13.682 14.671,13.686 C14.981,13.990 15.479,13.985 15.783,13.675 C16.183,13.244 16.750,13.009 17.337,13.030 C17.551,13.042 17.759,12.960 17.907,12.805 C18.058,12.655 18.140,12.448 18.132,12.236 C18.111,11.649 18.345,11.082 18.774,10.680 L18.775,10.680 C18.788,10.668 18.800,10.657 18.812,10.644 C19.102,10.333 19.086,9.847 18.775,9.557 C18.346,9.156 18.112,8.589 18.132,8.003 ZM15.220,12.651 C13.821,12.651 12.688,11.517 12.688,10.119 C12.688,8.720 13.821,7.587 15.220,7.587 C16.618,7.587 17.752,8.720 17.752,10.119 C17.752,11.517 16.618,12.651 15.220,12.651 ZM15.220,8.852 C14.521,8.852 13.954,9.419 13.954,10.119 C13.954,10.818 14.521,11.385 15.220,11.385 C15.919,11.385 16.486,10.818 16.486,10.119 C16.486,9.419 15.919,8.852 15.220,8.852 ZM15.220,-0.011 L16.486,-0.011 L16.486,1.255 L15.220,1.255 L15.220,-0.011 ZM6.357,2.522 L13.954,2.522 L13.954,3.788 L6.357,3.788 L6.357,2.522 ZM1.293,13.284 L9.523,13.284 L9.523,14.550 L0.027,14.550 L0.027,-0.011 L13.954,-0.011 L13.954,1.255 L1.293,1.255 L1.293,13.284 ZM2.559,5.687 L10.156,5.687 L10.156,6.953 L2.559,6.953 L2.559,5.687 ZM8.889,12.018 L7.623,12.018 L7.623,10.752 L8.889,10.752 L8.889,12.018 ZM2.559,12.018 L2.559,10.752 L6.357,10.752 L6.357,12.018 L2.559,12.018 ZM2.559,8.219 L8.889,8.219 L8.889,9.485 L2.559,9.485 L2.559,8.219 Z"/>
</svg>