<svg 
 xmlns="http://www.w3.org/2000/svg"
 xmlns:xlink="http://www.w3.org/1999/xlink"
 width="21px" height="21px">
<path fill-rule="evenodd"  fill="rgb(255, 255, 255)"
 d="M20.070,20.289 C19.928,20.431 19.742,20.503 19.556,20.503 C19.371,20.503 19.186,20.432 19.045,20.293 L14.775,16.043 C13.234,17.345 11.244,18.135 9.071,18.135 C4.196,18.135 0.229,14.178 0.229,9.315 C0.229,4.451 4.196,0.494 9.071,0.494 C13.946,0.494 17.913,4.451 17.913,9.315 C17.913,11.490 17.116,13.480 15.802,15.020 L20.067,19.264 C20.350,19.547 20.352,20.006 20.070,20.289 ZM9.071,1.944 C4.995,1.944 1.679,5.250 1.679,9.315 C1.679,13.378 4.995,16.686 9.071,16.686 C11.100,16.686 12.940,15.864 14.277,14.539 C14.279,14.537 14.280,14.533 14.283,14.531 C14.288,14.526 14.294,14.524 14.300,14.519 C15.636,13.185 16.463,11.344 16.463,9.315 C16.463,5.250 13.147,1.944 9.071,1.944 Z"/>
</svg>