<svg 
 xmlns="http://www.w3.org/2000/svg"
 xmlns:xlink="http://www.w3.org/1999/xlink"
 width="18px" height="16px">
<path fill-rule="evenodd"  fill-opacity="0.302" fill="rgb(255, 255, 255)"
 d="M17.516,14.583 C17.202,14.899 16.824,15.054 16.382,15.054 L1.618,15.054 C1.176,15.054 0.798,14.899 0.484,14.583 C0.170,14.270 0.013,13.892 0.013,13.451 L0.013,5.493 C0.307,5.820 0.645,6.111 1.026,6.364 C3.446,8.008 5.108,9.161 6.011,9.822 C6.392,10.104 6.701,10.322 6.939,10.478 C7.176,10.637 7.492,10.797 7.887,10.960 C8.281,11.124 8.649,11.206 8.990,11.206 L9.000,11.206 L9.010,11.206 C9.351,11.206 9.719,11.124 10.113,10.960 C10.508,10.797 10.824,10.637 11.061,10.478 C11.299,10.322 11.608,10.104 11.989,9.822 C13.126,9.000 14.791,7.848 16.984,6.364 C17.365,6.104 17.700,5.813 17.987,5.493 L17.987,13.451 C17.987,13.892 17.830,14.269 17.516,14.583 ZM16.272,5.292 C13.758,7.036 12.193,8.122 11.578,8.550 C11.511,8.597 11.369,8.698 11.151,8.855 C10.934,9.013 10.754,9.140 10.610,9.236 C10.466,9.333 10.292,9.441 10.088,9.563 C9.884,9.683 9.692,9.773 9.512,9.833 C9.331,9.893 9.164,9.923 9.010,9.923 L9.000,9.923 L8.990,9.923 C8.836,9.923 8.669,9.893 8.488,9.833 C8.308,9.773 8.115,9.683 7.911,9.563 C7.707,9.442 7.534,9.333 7.390,9.236 C7.246,9.140 7.066,9.013 6.848,8.855 C6.631,8.698 6.489,8.597 6.422,8.550 C5.813,8.122 4.938,7.512 3.794,6.721 C2.651,5.929 1.965,5.452 1.738,5.292 C1.323,5.012 0.932,4.626 0.564,4.135 C0.197,3.643 0.013,3.187 0.013,2.766 C0.013,2.245 0.151,1.812 0.429,1.463 C0.706,1.116 1.103,0.942 1.617,0.942 L16.382,0.942 C16.817,0.942 17.193,1.099 17.511,1.414 C17.828,1.727 17.987,2.105 17.987,2.546 C17.987,3.074 17.823,3.578 17.496,4.059 C17.168,4.540 16.760,4.951 16.272,5.292 Z"/>
</svg>