<svg 
 xmlns="http://www.w3.org/2000/svg"
 xmlns:xlink="http://www.w3.org/1999/xlink"
 width="32px" height="41px">
<path fill-rule="evenodd"  fill="rgb(255, 255, 255)"
 d="M29.297,23.117 C29.280,23.156 29.259,23.194 29.235,23.230 L29.202,23.278 C28.871,23.843 28.503,24.387 28.100,24.904 L21.746,32.474 C25.376,32.821 31.315,33.764 31.315,36.204 C31.315,39.366 21.275,40.201 15.967,40.201 C10.659,40.201 0.620,39.366 0.620,36.204 C0.620,33.758 6.572,32.818 10.213,32.474 L3.901,24.986 C3.456,24.421 3.052,23.827 2.691,23.207 C2.686,23.200 2.682,23.191 2.678,23.184 C-1.042,16.754 0.393,8.587 6.083,3.805 C11.773,-0.979 20.080,-0.999 25.794,3.755 C31.508,8.508 32.985,16.669 29.297,23.117 ZM1.954,36.204 C1.954,37.108 6.900,38.868 15.967,38.868 C25.034,38.868 29.980,37.108 29.980,36.204 C29.980,35.601 27.173,34.225 20.701,33.718 L18.802,35.983 C18.771,36.019 18.735,36.054 18.696,36.085 C18.662,36.121 18.627,36.161 18.590,36.204 C17.980,37.032 17.017,37.525 15.988,37.536 C15.025,37.580 14.105,37.139 13.537,36.361 C13.457,36.271 13.375,36.178 13.284,36.085 C13.244,36.055 13.207,36.020 13.175,35.983 L11.263,33.718 L11.263,33.717 C4.770,34.220 1.954,35.598 1.954,36.204 ZM24.976,4.810 C19.767,0.447 12.171,0.447 6.961,4.810 C1.752,9.174 0.433,16.641 3.834,22.520 L3.844,22.536 L3.844,22.539 C4.170,23.101 4.535,23.639 4.936,24.149 L14.131,35.048 C14.144,35.060 14.157,35.071 14.169,35.083 C14.301,35.215 14.420,35.347 14.534,35.475 C14.846,35.967 15.405,36.248 15.988,36.204 C16.629,36.186 17.222,35.862 17.581,35.331 C17.664,35.235 17.740,35.149 17.807,35.083 C17.819,35.071 17.832,35.060 17.844,35.049 L27.063,24.068 C27.433,23.590 27.772,23.087 28.078,22.566 C28.080,22.560 28.084,22.554 28.087,22.549 C28.093,22.538 28.098,22.530 28.104,22.520 C31.505,16.641 30.186,9.174 24.976,4.810 ZM15.967,22.854 C11.913,22.854 8.627,19.574 8.627,15.527 C8.627,11.481 11.913,8.201 15.967,8.201 C20.021,8.201 23.307,11.481 23.307,15.527 C23.302,19.572 20.019,22.849 15.967,22.854 ZM15.967,9.532 C12.650,9.532 9.962,12.216 9.962,15.527 C9.965,18.836 12.652,21.519 15.967,21.522 C19.284,21.522 21.973,18.838 21.973,15.527 C21.973,12.216 19.284,9.532 15.967,9.532 Z"/>
</svg>