<svg 
 xmlns="http://www.w3.org/2000/svg"
 xmlns:xlink="http://www.w3.org/1999/xlink"
 width="24px" height="14px">
<path fill-rule="evenodd"  fill="rgb(131, 139, 154)"
 d="M17.211,13.502 C16.831,13.114 16.501,12.778 16.193,12.464 C17.744,10.870 19.286,9.286 20.830,7.701 C15.424,7.701 9.993,7.701 4.540,7.701 C4.540,7.203 4.540,6.732 4.540,6.236 C9.974,6.236 15.407,6.236 20.803,6.236 C19.265,4.656 17.721,3.071 16.192,1.499 C16.522,1.184 16.862,0.857 17.241,0.495 C19.319,2.636 21.462,4.844 23.543,6.989 C21.496,9.094 19.355,11.296 17.211,13.502 ZM0.457,6.246 C1.372,6.246 2.278,6.246 3.205,6.246 C3.205,6.717 3.205,7.187 3.205,7.671 C2.285,7.671 1.379,7.671 0.457,7.671 C0.457,7.193 0.457,6.730 0.457,6.246 Z"/>
</svg>