<svg 
 xmlns="http://www.w3.org/2000/svg"
 xmlns:xlink="http://www.w3.org/1999/xlink"
 width="39px" height="39px">
<path fill-rule="evenodd"  fill="rgb(255, 255, 255)"
 d="M38.633,33.054 L36.696,36.270 C36.101,37.282 35.137,38.024 34.006,38.341 C33.034,38.603 32.032,38.734 31.025,38.729 C26.651,38.729 20.288,36.433 11.739,27.893 C0.993,17.157 0.121,9.869 1.281,5.646 C1.598,4.516 2.341,3.553 3.353,2.958 L6.574,1.026 C7.599,0.410 8.928,0.709 9.590,1.703 L14.727,9.401 C15.373,10.377 15.160,11.686 14.238,12.409 L11.354,14.650 C10.974,14.940 10.866,15.466 11.101,15.883 L11.335,16.309 C12.106,17.720 13.068,19.481 16.616,23.026 C20.163,26.572 21.924,27.531 23.339,28.302 L23.766,28.537 C24.183,28.768 24.707,28.658 24.996,28.278 L27.240,25.395 C27.962,24.474 29.273,24.261 30.251,24.907 L37.955,30.040 C38.951,30.702 39.250,32.030 38.633,33.054 ZM37.246,31.096 L29.542,25.963 C29.118,25.683 28.550,25.775 28.236,26.175 L25.992,29.056 C25.321,29.933 24.107,30.183 23.143,29.644 L22.726,29.414 C21.240,28.605 19.391,27.598 15.712,23.922 C12.033,20.247 11.025,18.399 10.214,16.914 L9.985,16.498 C9.445,15.535 9.695,14.322 10.573,13.652 L13.457,11.411 C13.857,11.096 13.949,10.529 13.669,10.105 L11.326,6.595 L8.536,2.408 C8.248,1.976 7.672,1.847 7.227,2.115 L4.006,4.046 C3.274,4.473 2.736,5.167 2.504,5.981 C1.433,9.880 2.320,16.690 12.637,26.997 C22.953,37.304 29.771,38.190 33.673,37.119 C34.487,36.888 35.180,36.352 35.607,35.622 L37.540,32.403 C37.808,31.959 37.678,31.383 37.246,31.096 ZM22.459,13.382 C24.910,13.385 26.896,15.369 26.899,17.818 C26.899,18.168 26.614,18.452 26.264,18.452 C25.914,18.452 25.630,18.168 25.630,17.818 C25.628,16.069 24.209,14.652 22.459,14.650 C22.108,14.650 21.824,14.366 21.824,14.016 C21.824,13.666 22.108,13.382 22.459,13.382 ZM22.459,9.580 C27.010,9.585 30.699,13.271 30.704,17.818 C30.704,18.168 30.420,18.452 30.070,18.452 C29.720,18.452 29.436,18.168 29.436,17.818 C29.431,13.970 26.310,10.852 22.459,10.847 C22.108,10.847 21.824,10.563 21.824,10.214 C21.824,9.864 22.108,9.580 22.459,9.580 ZM33.876,18.452 C33.525,18.452 33.241,18.168 33.241,17.818 C33.235,11.871 28.411,7.052 22.459,7.046 C22.108,7.046 21.824,6.762 21.824,6.412 C21.824,6.062 22.108,5.778 22.459,5.778 C29.111,5.786 34.502,11.172 34.510,17.818 C34.510,18.168 34.226,18.452 33.876,18.452 Z"/>
</svg>