<svg 
 xmlns="http://www.w3.org/2000/svg"
 xmlns:xlink="http://www.w3.org/1999/xlink"
 width="21px" height="21px">
<path fill-rule="evenodd"  fill="rgb(209, 215, 226)"
 d="M19.716,9.718 L11.281,9.718 L11.281,1.282 C11.281,0.852 10.931,0.502 10.500,0.502 C10.069,0.502 9.719,0.852 9.719,1.282 L9.719,9.718 L1.284,9.718 C0.853,9.718 0.503,10.068 0.503,10.499 C0.503,10.930 0.853,11.280 1.284,11.280 L9.719,11.280 L9.719,19.715 C9.719,20.146 10.069,20.496 10.500,20.496 C10.931,20.496 11.281,20.146 11.281,19.715 L11.281,11.280 L19.716,11.280 C20.147,11.280 20.497,10.930 20.497,10.499 C20.497,10.068 20.147,9.718 19.716,9.718 Z"/>
</svg>