<svg 
 xmlns="http://www.w3.org/2000/svg"
 xmlns:xlink="http://www.w3.org/1999/xlink"
 width="39px" height="39px">
<path fill-rule="evenodd"  fill="rgb(255, 255, 255)"
 d="M9.031,7.379 C8.993,7.398 8.952,7.411 8.910,7.417 C8.870,7.425 8.830,7.429 8.790,7.429 C8.622,7.429 8.461,7.362 8.340,7.246 C8.095,6.996 8.095,6.595 8.340,6.345 L8.435,6.269 C8.470,6.245 8.509,6.226 8.549,6.212 C8.585,6.194 8.623,6.181 8.663,6.174 C8.744,6.155 8.829,6.155 8.910,6.174 C8.952,6.180 8.993,6.193 9.031,6.212 C9.071,6.226 9.109,6.245 9.145,6.269 L9.240,6.345 C9.485,6.595 9.485,6.996 9.240,7.246 L9.145,7.321 C9.110,7.345 9.071,7.365 9.031,7.379 ZM13.467,7.379 C13.429,7.398 13.388,7.411 13.346,7.417 C13.306,7.425 13.266,7.429 13.226,7.429 C13.058,7.429 12.897,7.362 12.776,7.246 C12.531,6.996 12.531,6.595 12.776,6.345 L12.870,6.269 C12.906,6.245 12.944,6.226 12.985,6.212 C13.021,6.194 13.059,6.181 13.099,6.174 C13.180,6.155 13.264,6.155 13.346,6.174 C13.388,6.180 13.429,6.193 13.467,6.212 C13.507,6.226 13.545,6.245 13.581,6.269 L13.676,6.345 C13.921,6.595 13.921,6.996 13.676,7.246 L13.581,7.321 C13.545,7.345 13.507,7.365 13.467,7.379 ZM17.902,7.379 C17.865,7.398 17.824,7.411 17.781,7.417 C17.742,7.425 17.702,7.429 17.662,7.429 C17.494,7.429 17.332,7.362 17.212,7.246 C16.967,6.996 16.967,6.595 17.212,6.345 L17.306,6.269 C17.342,6.245 17.380,6.226 17.421,6.212 C17.457,6.194 17.495,6.181 17.535,6.174 C17.616,6.155 17.700,6.155 17.781,6.174 C17.824,6.180 17.864,6.193 17.902,6.212 C17.943,6.226 17.981,6.245 18.017,6.269 L18.112,6.345 C18.357,6.595 18.357,6.996 18.112,7.246 L18.017,7.321 C17.981,7.345 17.943,7.365 17.902,7.379 ZM22.338,7.379 C22.300,7.398 22.259,7.411 22.217,7.417 C22.178,7.425 22.138,7.429 22.098,7.429 C21.929,7.429 21.768,7.362 21.648,7.246 C21.403,6.996 21.403,6.595 21.648,6.345 L21.742,6.269 C21.778,6.245 21.816,6.226 21.857,6.212 C21.893,6.194 21.931,6.181 21.971,6.174 C22.052,6.155 22.136,6.155 22.217,6.174 C22.259,6.180 22.300,6.193 22.338,6.212 C22.379,6.226 22.417,6.245 22.452,6.269 L22.547,6.345 C22.793,6.595 22.793,6.996 22.547,7.246 L22.452,7.321 C22.417,7.345 22.379,7.365 22.338,7.379 ZM26.774,7.379 C26.736,7.398 26.695,7.411 26.653,7.417 C26.614,7.425 26.574,7.429 26.533,7.429 C26.365,7.429 26.204,7.362 26.083,7.246 C25.838,6.996 25.838,6.595 26.083,6.345 L26.178,6.269 C26.214,6.245 26.252,6.226 26.293,6.212 C26.328,6.194 26.367,6.181 26.407,6.174 C26.488,6.155 26.572,6.155 26.653,6.174 C26.695,6.180 26.736,6.193 26.774,6.212 C26.814,6.226 26.853,6.245 26.888,6.269 L26.983,6.345 C27.228,6.595 27.228,6.996 26.983,7.246 L26.888,7.321 C26.853,7.345 26.815,7.365 26.774,7.379 ZM31.210,7.379 C31.172,7.398 31.131,7.411 31.089,7.417 C31.049,7.425 31.009,7.429 30.969,7.429 C30.801,7.429 30.640,7.362 30.519,7.246 C30.274,6.996 30.274,6.595 30.519,6.345 L30.614,6.269 C30.649,6.245 30.688,6.226 30.728,6.212 C30.764,6.194 30.803,6.181 30.842,6.174 C30.923,6.155 31.008,6.155 31.089,6.174 C31.131,6.180 31.172,6.193 31.210,6.212 C31.250,6.226 31.289,6.245 31.324,6.269 L31.419,6.345 C31.664,6.595 31.664,6.996 31.419,7.246 L31.324,7.321 C31.289,7.345 31.250,7.365 31.210,7.379 ZM34.955,6.345 L35.050,6.269 C35.085,6.245 35.124,6.226 35.164,6.212 C35.200,6.194 35.239,6.181 35.278,6.174 C35.359,6.155 35.444,6.155 35.525,6.174 C35.567,6.180 35.608,6.193 35.646,6.212 C35.686,6.226 35.725,6.245 35.760,6.269 L35.855,6.345 C36.100,6.595 36.100,6.996 35.855,7.246 L35.760,7.321 C35.725,7.345 35.686,7.365 35.646,7.379 C35.608,7.398 35.567,7.411 35.525,7.417 C35.485,7.425 35.445,7.429 35.405,7.429 C35.237,7.429 35.076,7.362 34.955,7.246 C34.710,6.996 34.710,6.595 34.955,6.345 ZM36.672,32.786 L25.900,32.786 C25.550,32.786 25.266,32.502 25.266,32.152 C25.266,31.803 25.550,31.519 25.900,31.519 L36.672,31.519 C37.022,31.519 37.306,31.234 37.306,30.884 L37.306,5.528 C37.306,5.178 37.022,4.894 36.672,4.894 L7.523,4.894 C7.173,4.894 6.889,5.178 6.889,5.528 L6.889,8.697 L34.772,8.697 C35.122,8.697 35.405,8.981 35.405,9.331 C35.405,9.681 35.122,9.965 34.772,9.965 L6.889,9.965 L6.889,12.501 C6.889,12.850 6.605,13.135 6.255,13.135 C5.905,13.135 5.622,12.850 5.622,12.501 L5.622,5.528 C5.622,4.477 6.473,3.626 7.523,3.626 L8.157,3.626 L8.157,1.090 C8.157,0.740 8.440,0.456 8.790,0.456 C9.140,0.456 9.424,0.740 9.424,1.090 L9.424,3.626 L12.592,3.626 L12.592,1.090 C12.592,0.740 12.876,0.456 13.226,0.456 C13.576,0.456 13.860,0.740 13.860,1.090 L13.860,3.626 L17.028,3.626 L17.028,1.090 C17.028,0.740 17.312,0.456 17.662,0.456 C18.012,0.456 18.296,0.740 18.296,1.090 L18.296,3.626 L21.464,3.626 L21.464,1.090 C21.464,0.740 21.748,0.456 22.098,0.456 C22.448,0.456 22.731,0.740 22.731,1.090 L22.731,3.626 L25.900,3.626 L25.900,1.090 C25.900,0.740 26.183,0.456 26.533,0.456 C26.883,0.456 27.167,0.740 27.167,1.090 L27.167,3.626 L30.336,3.626 L30.336,1.090 C30.336,0.740 30.619,0.456 30.969,0.456 C31.319,0.456 31.603,0.740 31.603,1.090 L31.603,3.626 L34.771,3.626 L34.771,1.090 C34.771,0.740 35.055,0.456 35.405,0.456 C35.755,0.456 36.039,0.740 36.039,1.090 L36.039,3.626 L36.672,3.626 C37.722,3.626 38.573,4.477 38.573,5.528 L38.573,30.884 C38.573,31.935 37.722,32.786 36.672,32.786 ZM11.958,13.769 C11.609,13.769 11.325,13.485 11.325,13.135 C11.325,12.784 11.608,12.501 11.958,12.501 L34.138,12.501 C34.487,12.501 34.771,12.784 34.771,13.135 L34.771,28.349 C34.771,28.698 34.488,28.982 34.138,28.982 L24.632,28.982 C24.282,28.982 23.999,28.698 23.999,28.349 C23.999,27.998 24.282,27.715 24.632,27.715 L26.533,27.715 L26.533,23.911 L20.196,23.911 C19.846,23.911 19.563,23.628 19.563,23.277 L19.563,18.840 L11.958,18.840 C11.609,18.840 11.325,18.556 11.325,18.206 C11.325,17.856 11.608,17.572 11.958,17.572 L12.592,17.572 L12.592,13.769 L11.958,13.769 ZM27.801,27.715 L33.504,27.715 L33.504,23.911 L27.801,23.911 L27.801,27.715 ZM27.801,22.643 L33.504,22.643 L33.504,18.840 L27.801,18.840 L27.801,22.643 ZM27.801,17.572 L33.504,17.572 L33.504,13.769 L27.801,13.769 L27.801,17.572 ZM20.830,22.643 L26.533,22.643 L26.533,18.840 L20.830,18.840 L20.830,22.643 ZM20.830,17.572 L26.533,17.572 L26.533,13.769 L20.830,13.769 L20.830,17.572 ZM13.859,17.572 L19.563,17.572 L19.563,13.769 L13.859,13.769 L13.859,17.572 ZM6.398,15.067 L9.590,19.857 C10.062,20.569 9.907,21.524 9.234,22.051 L7.436,23.445 C7.294,23.552 7.252,23.748 7.338,23.904 L7.485,24.174 C8.328,25.719 9.423,27.114 10.725,28.298 C11.901,29.589 13.281,30.677 14.810,31.519 L15.634,31.519 L16.978,29.798 C17.504,29.125 18.458,28.971 19.170,29.442 L23.959,32.635 C24.684,33.117 24.902,34.086 24.452,34.832 L23.248,36.836 C22.847,37.517 22.197,38.017 21.435,38.230 C20.812,38.398 20.169,38.482 19.523,38.480 C16.748,38.480 12.729,37.034 7.364,31.665 C0.604,24.903 0.065,20.278 0.805,17.589 C1.019,16.826 1.518,16.176 2.200,15.776 L4.200,14.574 C4.947,14.125 5.915,14.342 6.398,15.067 ZM4.850,15.658 L2.848,16.862 C2.447,17.097 2.152,17.477 2.025,17.924 C1.108,21.267 3.321,25.831 8.259,30.770 C13.197,35.710 17.757,37.924 21.099,37.007 C21.546,36.880 21.926,36.585 22.161,36.183 L23.365,34.180 C23.466,34.014 23.417,33.797 23.254,33.689 L18.466,30.495 C18.307,30.390 18.094,30.425 17.977,30.575 L16.582,32.368 C16.518,32.451 16.445,32.528 16.365,32.597 C16.356,32.606 16.345,32.611 16.337,32.618 C15.823,33.054 15.093,33.125 14.506,32.795 L14.249,32.654 C12.596,31.754 11.104,30.586 9.835,29.195 C8.446,27.926 7.278,26.434 6.378,24.782 L6.237,24.523 L6.235,24.521 C5.843,23.819 6.025,22.934 6.664,22.445 L8.457,21.050 C8.607,20.933 8.641,20.719 8.536,20.560 L5.341,15.769 C5.234,15.606 5.017,15.557 4.850,15.658 Z"/>
</svg>