<svg 
 xmlns="http://www.w3.org/2000/svg"
 xmlns:xlink="http://www.w3.org/1999/xlink"
 width="20px" height="12px">
<path fill-rule="evenodd"  fill="rgb(255, 255, 255)"
 d="M14.519,11.638 C14.190,11.302 13.903,11.011 13.636,10.738 C14.982,9.356 16.318,7.982 17.657,6.608 C12.969,6.608 8.260,6.608 3.530,6.608 C3.530,6.176 3.530,5.768 3.530,5.337 C8.243,5.337 12.955,5.337 17.634,5.337 C16.300,3.967 14.962,2.592 13.635,1.230 C13.921,0.956 14.217,0.673 14.545,0.359 C16.347,2.215 18.205,4.130 20.010,5.990 C18.235,7.816 16.379,9.725 14.519,11.638 ZM-0.010,5.346 C0.783,5.346 1.569,5.346 2.373,5.346 C2.373,5.755 2.373,6.162 2.373,6.581 C1.576,6.581 0.789,6.581 -0.010,6.581 C-0.010,6.166 -0.010,5.766 -0.010,5.346 Z"/>
</svg>