<svg 
 xmlns="http://www.w3.org/2000/svg"
 xmlns:xlink="http://www.w3.org/1999/xlink"
 width="24px" height="14px">
<path fill-rule="evenodd"  fill="rgb(77, 92, 118)"
 d="M17.211,13.502 C16.831,13.115 16.501,12.779 16.193,12.463 C17.745,10.869 19.286,9.286 20.830,7.701 C15.424,7.701 9.993,7.701 4.540,7.701 C4.540,7.202 4.540,6.733 4.540,6.236 C9.974,6.236 15.407,6.236 20.803,6.236 C19.265,4.656 17.722,3.071 16.192,1.500 C16.522,1.184 16.862,0.858 17.241,0.495 C19.319,2.636 21.462,4.844 23.543,6.988 C21.496,9.094 19.355,11.296 17.211,13.502 ZM0.457,6.246 C1.372,6.246 2.278,6.246 3.205,6.246 C3.205,6.717 3.205,7.187 3.205,7.670 C2.286,7.670 1.379,7.670 0.457,7.670 C0.457,7.193 0.457,6.730 0.457,6.246 Z"/>
</svg>