<svg 
 xmlns="http://www.w3.org/2000/svg"
 xmlns:xlink="http://www.w3.org/1999/xlink"
 width="24px" height="14px">
<path fill-rule="evenodd"  fill="rgb(77, 92, 118)"
 d="M20.795,7.670 C20.795,7.187 20.795,6.717 20.795,6.246 C21.722,6.246 22.628,6.246 23.543,6.246 C23.543,6.730 23.543,7.193 23.543,7.670 C22.621,7.670 21.714,7.670 20.795,7.670 ZM7.807,12.463 C7.499,12.779 7.168,13.115 6.789,13.502 C4.644,11.296 2.504,9.094 0.457,6.988 C2.538,4.844 4.681,2.636 6.759,0.495 C7.137,0.858 7.478,1.184 7.808,1.500 C6.278,3.071 4.735,4.656 3.196,6.236 C8.592,6.236 14.025,6.236 19.460,6.236 C19.460,6.733 19.460,7.202 19.460,7.701 C14.006,7.701 8.576,7.701 3.170,7.701 C4.714,9.286 6.255,10.869 7.807,12.463 Z"/>
</svg>